<svg xmlns="http://www.w3.org/2000/svg" width="800" height="1028" viewBox="0 0 800 1028" version="1.1">
	<path d="M 178.500 110 C 178.160 110.550, 178.359 111, 178.941 111 C 179.523 111, 180 110.550, 180 110 C 180 109.450, 179.802 109, 179.559 109 C 179.316 109, 178.840 109.450, 178.500 110 M 183.500 110.905 C 180.943 112.011, 165 127.715, 165 129.127 C 165 129.712, 164.151 131.386, 163.114 132.846 C 162.077 134.306, 160.014 138.425, 158.529 142 C 157.044 145.575, 155.158 149.850, 154.338 151.500 C 151.566 157.077, 148.153 166.818, 145.570 176.522 C 143.359 184.830, 143 188.251, 143 201.030 C 143 209.853, 143.406 216.133, 144 216.500 C 144.550 216.840, 145 217.906, 145 218.869 C 145 220.301, 150.435 235.175, 154.001 243.500 C 154.472 244.600, 155.622 247.975, 156.558 251 C 158.030 255.763, 161.036 263.698, 163.945 270.500 C 165.590 274.347, 168.349 284.525, 168.521 287.379 C 168.978 294.982, 165.158 304, 161.481 304 C 159.221 304, 157.130 300.437, 155.441 293.710 C 154.462 289.811, 153.261 287.061, 152.619 287.250 C 152.003 287.431, 150.150 290.261, 148.500 293.539 C 145.550 299.400, 145.500 299.761, 145.500 315.073 C 145.500 330.540, 145.519 330.670, 148.265 334.276 C 151.718 338.809, 160.357 345.431, 169.500 350.552 C 173.350 352.709, 177.242 354.929, 178.150 355.487 C 179.057 356.044, 185.582 359.813, 192.650 363.862 C 199.717 367.912, 207.226 372.862, 209.336 374.862 C 216.531 381.684, 220.697 392.269, 221.632 406.107 C 222.185 414.285, 221.965 416.757, 220.149 422.736 C 218.975 426.599, 217.225 430.719, 216.258 431.891 C 214.512 434.009, 208.702 437.574, 202 440.641 C 196.024 443.376, 195.629 443.614, 195.269 444.694 C 194.697 446.408, 198.661 446.907, 208.875 446.407 L 218.500 445.935 215.448 448.717 C 213.770 450.248, 211.014 452.625, 209.325 454 C 201.512 460.359, 173.917 488.056, 174.482 488.972 C 175.475 490.578, 177.438 490.204, 182.148 487.512 C 185.979 485.322, 187.694 485.023, 196.471 485.012 C 205.636 485.001, 217 486.667, 217 488.021 C 217 488.526, 212.158 490.178, 195.500 495.357 C 180.956 499.879, 163.158 507.917, 157.595 512.476 C 150.505 518.285, 151.178 518.999, 163.750 519.006 C 169.662 519.009, 176.300 519.484, 178.500 520.061 C 186.670 522.206, 196.531 525.285, 197.500 525.993 C 198.050 526.395, 199.803 527.036, 201.395 527.417 C 205.182 528.325, 204.060 529.183, 194.932 532.363 C 189.773 534.161, 185.304 535, 180.894 535 C 177.335 535, 169.229 535.645, 162.878 536.432 C 155.128 537.394, 150.045 537.566, 147.416 536.956 C 136.561 534.438, 112.655 537.287, 109.765 541.443 C 108.470 543.306, 108.916 543.741, 113.250 544.842 C 115.588 545.436, 122 548.233, 127.500 551.057 C 133 553.882, 139.628 557.040, 142.230 558.074 C 144.831 559.109, 150.231 561.937, 154.230 564.360 C 167.324 572.293, 177.509 574.307, 193.161 572.058 C 208.086 569.913, 221.006 565.618, 230.159 559.760 C 234.650 556.885, 245.810 544.867, 247.115 541.500 C 247.328 540.950, 250.023 536.675, 253.103 532 C 263.718 515.892, 267.073 500.810, 265.174 477.746 C 264.528 469.911, 263.580 461.925, 263.067 460 C 262.554 458.075, 261.641 454.025, 261.039 451 C 258.709 439.290, 256.141 429.255, 254.001 423.500 C 252.774 420.200, 250.979 415.241, 250.012 412.480 C 247.908 406.473, 243.325 396.256, 238.134 386 C 230.230 370.387, 207.045 344.555, 203.826 347.774 C 203.043 348.557, 204.362 350.351, 208.537 354.181 C 215.722 360.772, 214.760 359.671, 223.159 370.927 C 229.222 379.052, 234.383 388.193, 237.035 395.500 C 237.434 396.600, 238.450 399.300, 239.293 401.500 C 241.940 408.406, 244.989 422.700, 246.087 433.348 C 246.550 437.832, 247.385 444.650, 247.943 448.500 C 249.816 461.419, 251.040 477.266, 250.446 480.899 C 247.988 495.920, 246.591 499.153, 240.433 504.066 C 233.588 509.528, 225.940 512.776, 217.064 513.991 C 207.991 515.234, 206.175 514.935, 211.218 513.029 C 217.895 510.506, 227.513 505.412, 231.097 502.500 C 233.128 500.850, 236.417 498.240, 238.405 496.699 C 243.400 492.829, 245.659 489.259, 244.099 487.699 C 240.933 484.532, 220.576 474.386, 215.462 473.427 C 211.991 472.776, 210.614 471, 213.581 471 C 214.450 471, 217.632 469.360, 220.651 467.356 C 230.127 461.066, 237.462 450.551, 240.416 439.021 C 242.536 430.747, 242.460 430, 239.500 430 C 237.272 430, 237 429.587, 237 426.200 C 237 424.110, 236.633 421.972, 236.185 421.450 C 235.737 420.927, 234.549 417.125, 233.546 413 C 232.542 408.875, 231.333 405.073, 230.860 404.550 C 230.387 404.028, 230 402.828, 230 401.883 C 230 400.939, 229.648 400.017, 229.218 399.833 C 228.788 399.650, 226.882 395.900, 224.983 391.500 C 218.909 377.426, 213.383 370.292, 202.671 362.699 C 197.474 359.015, 192.915 356, 192.541 356 C 192.166 356, 189.935 354.675, 187.581 353.056 C 185.228 351.437, 178.622 347.673, 172.901 344.693 C 157.946 336.901, 156.507 335.965, 154.252 332.563 C 150.366 326.701, 148.171 310.342, 150.184 302.240 L 151.243 297.979 152.871 301.168 C 154.972 305.281, 158.602 307.899, 163.253 308.654 C 166.533 309.186, 167.316 308.874, 170.055 305.941 C 172.556 303.264, 173.326 302.903, 174.060 304.063 C 174.560 304.853, 174.998 306.400, 175.033 307.500 C 175.264 314.801, 182.860 320.814, 193.015 321.735 C 198.704 322.251, 199.065 322.142, 201.957 319.046 C 206.324 314.371, 207.329 309.634, 205.605 301.863 C 203.130 290.710, 200.039 283.780, 192.507 272.500 C 188.467 266.450, 184.572 260.150, 183.851 258.500 C 183.130 256.850, 182.269 255.275, 181.937 255 C 181.046 254.261, 172.641 240.190, 170.031 235.067 C 167.539 230.175, 163.038 218.633, 162.401 215.500 C 160.223 204.781, 159.792 199.305, 160.354 189.469 C 161.161 175.334, 163.885 164.562, 168.206 158.420 C 173.488 150.910, 175.928 149.564, 184.994 149.152 C 191.873 148.839, 193.454 149.111, 197.676 151.329 C 200.329 152.722, 203.507 154.147, 204.738 154.495 C 209.235 155.766, 214.814 150.519, 219.352 140.750 C 220.310 138.688, 221.407 137, 221.790 137 C 222.172 137, 230.139 144.797, 239.493 154.327 C 248.847 163.857, 260.325 175.272, 265 179.693 C 269.675 184.114, 280.925 195.261, 290 204.464 C 299.075 213.667, 307.675 221.807, 309.110 222.552 C 310.970 223.517, 314.564 223.792, 321.610 223.506 C 327.050 223.285, 337.575 223.061, 345 223.008 C 360.098 222.900, 366.677 224.407, 377 230.339 C 382.342 233.409, 382.414 233.507, 379.500 233.757 C 374.121 234.218, 369 236.044, 369 237.502 C 369 238.311, 370.704 239.382, 372.960 239.989 C 375.137 240.576, 378.850 242.520, 381.210 244.310 C 383.569 246.099, 387.123 248.559, 389.106 249.775 C 393.598 252.528, 401.515 260.897, 402.468 263.898 C 402.957 265.441, 402.606 266.778, 401.346 268.171 C 399.503 270.206, 396.453 270.279, 390.250 268.435 C 385.582 267.048, 388.007 270.997, 394.125 274.747 C 421.613 291.592, 430.597 299.671, 429.562 306.612 C 428.896 311.082, 426.438 320.482, 425.568 321.891 C 424.514 323.595, 424.792 338.662, 425.947 342.461 C 426.455 344.132, 427.667 348.425, 428.640 352 C 429.614 355.575, 431.665 360.980, 433.198 364.012 C 435.830 369.215, 436.280 369.595, 441.243 370.802 C 444.134 371.505, 453.475 372.940, 462 373.990 C 470.525 375.041, 486.275 377.020, 497 378.389 C 507.725 379.758, 520.550 381.151, 525.500 381.484 C 534.940 382.121, 549.441 383.722, 554.442 384.680 L 557.384 385.243 554.442 386.786 C 550.384 388.915, 531.166 397.006, 527.500 398.129 C 516.896 401.378, 505.784 403, 494.130 403 C 487.275 403, 481.963 402.704, 482.325 402.342 C 482.687 401.980, 482.424 401.002, 481.741 400.169 C 480.676 398.868, 480.854 398.746, 483 399.308 C 487.279 400.430, 511 398.866, 511 397.463 C 511 396.121, 514.069 395.042, 518 395.002 C 521.547 394.966, 536.114 391.286, 537.265 390.135 C 539.077 388.323, 536.958 386.917, 533.418 387.581 C 525.794 389.012, 489.632 383.024, 485.113 379.584 C 484.066 378.786, 483.362 379.076, 482.241 380.764 C 480.721 383.053, 476.616 383.806, 475.500 382 C 475.160 381.450, 473.315 381, 471.399 381 C 469.483 381, 464.530 380.301, 460.391 379.446 C 456.253 378.591, 450.984 378.028, 448.683 378.196 L 444.500 378.500 450 383.825 C 458.318 391.878, 467.224 398.231, 473.924 400.890 C 477.236 402.204, 479.706 403.666, 479.414 404.140 C 479.121 404.613, 475.871 405.005, 472.191 405.012 C 468.511 405.018, 463.250 405.622, 460.500 406.352 C 456.094 407.523, 453.029 407.834, 440.584 408.374 C 436.387 408.556, 436.437 410.074, 440.805 415.079 C 444.109 418.865, 447.800 424.412, 459.878 443.750 C 460.994 445.537, 461.746 447, 461.547 447 C 461.348 447, 456.756 444.370, 451.342 441.155 C 433.673 430.663, 429.095 430.420, 435.420 440.308 C 440.959 448.966, 442.174 453.744, 442.378 467.674 C 442.477 474.453, 442.207 480, 441.779 480 C 441.351 480, 441 479.479, 441 478.842 C 441 477.095, 435.088 458.719, 433.973 457 C 432.521 454.762, 430.972 457.611, 431.690 461.200 C 431.997 462.737, 431.763 464.581, 431.168 465.297 C 430.574 466.013, 429.783 468.602, 429.410 471.050 C 428.312 478.264, 427.518 478.467, 425.589 472.024 C 424.505 468.408, 423.228 466, 422.392 466 C 420.886 466, 420.664 466.883, 421.007 471.500 C 421.129 473.150, 421.397 483.007, 421.603 493.405 C 421.809 503.803, 422.242 512.575, 422.565 512.899 C 423.196 513.530, 427.961 508.290, 430.927 503.702 L 432.736 500.904 435.749 510.202 C 439.417 521.523, 442.893 535.694, 443.548 542 C 443.634 542.825, 443.771 544.147, 443.852 544.937 C 443.953 545.921, 444.966 545.449, 447.061 543.442 C 451.117 539.556, 459.682 521.920, 460.875 515 C 461.396 511.975, 462.759 504.325, 463.905 498 C 465.050 491.675, 465.990 483.207, 465.993 479.182 L 466 471.864 469.024 474.017 C 470.687 475.202, 474.979 479.130, 478.561 482.748 C 486.060 490.321, 487.817 490.237, 485.914 482.398 C 484.096 474.907, 477.073 453.764, 473.991 446.500 C 473.524 445.400, 472.184 441.824, 471.012 438.554 C 469.840 435.283, 468.242 431.458, 467.461 430.054 C 466.679 428.649, 464.959 424.976, 463.638 421.891 L 461.235 416.283 470.271 415.641 C 489.758 414.258, 491.870 414.523, 499.047 419.251 C 507.915 425.093, 510.932 427.370, 510.969 428.250 C 510.986 428.663, 507.850 429, 504 429 C 495.837 429, 495.449 429.678, 499.583 436.732 C 502.539 441.776, 512.782 455.527, 519.168 463.025 C 533.258 479.567, 555.521 491.464, 576.180 493.489 L 582.860 494.144 581.384 498.322 C 578.684 505.964, 575.826 525.855, 575.971 536 L 576.078 543.500 572.604 539.500 C 568.769 535.084, 561 520.447, 561 517.638 C 561 516.472, 560.393 515.974, 559.250 516.202 C 557.689 516.513, 557.513 517.880, 557.619 528.847 C 557.739 541.176, 558.388 544.051, 562.059 548.500 C 564.520 551.484, 575.243 569.571, 578.955 577 C 580.741 580.575, 582.607 584.281, 583.101 585.236 C 584.381 587.709, 584.215 609.062, 582.872 614.736 C 578.969 631.220, 571.191 647.357, 564.703 652.435 C 562.225 654.375, 561.789 655.189, 562.727 656.127 C 563.665 657.065, 564.800 656.989, 567.872 655.782 C 571.941 654.184, 583.804 646.147, 586.001 643.499 C 588.216 640.830, 588.735 641.864, 589.198 649.863 C 589.588 656.595, 590.257 658.932, 593.854 666.113 C 598.972 676.331, 599.592 677.068, 609 684.127 C 614.010 687.885, 618.492 690.324, 622.500 691.471 C 625.800 692.415, 630.075 693.805, 632 694.559 C 637.503 696.715, 654.252 698.500, 668.985 698.500 C 681.032 698.500, 682.506 698.313, 682.808 696.750 C 683.092 695.282, 682.369 694.994, 678.323 694.964 C 666.543 694.877, 651.391 688.333, 643.541 679.941 C 641.044 677.270, 639 674.616, 639 674.043 C 639 673.469, 640.722 673, 642.828 673 C 644.933 673, 649.436 671.870, 652.834 670.489 C 663.958 665.969, 681.100 653.549, 682.242 649.182 C 682.706 647.409, 681.999 647.341, 667.862 647.795 C 651.272 648.327, 644.715 647.067, 638.696 642.190 C 636.938 640.766, 635.338 639.491, 635.141 639.358 C 634.943 639.224, 635.726 637.789, 636.880 636.168 C 639.909 631.915, 656.547 599.202, 657.993 594.658 C 659.532 589.823, 658.233 587.990, 654.801 590.153 C 650.945 592.584, 644.717 594.172, 640.500 593.800 L 636.500 593.446 640.750 591.615 C 646.785 589.014, 646.570 586.352, 640.250 585.428 C 634.213 584.545, 628.363 582.261, 614 575.175 C 592.528 564.583, 586.261 555.023, 587.305 534.445 C 587.853 523.632, 590.510 511.106, 593.763 503.998 C 594.897 501.522, 598.339 495.491, 601.412 490.596 C 604.485 485.700, 607 481.037, 607 480.234 C 607 478.586, 604.963 478.803, 596 481.408 C 592.975 482.287, 587.615 483.206, 584.088 483.451 C 578.402 483.845, 577.845 483.726, 579.169 482.402 C 580.854 480.718, 595.950 477.462, 606.477 476.512 C 612.880 475.935, 615.557 474.711, 614.425 472.879 C 613.896 472.022, 605.108 469.949, 599.500 469.358 C 597.300 469.126, 594.375 468.518, 593 468.007 C 591.625 467.496, 587.125 466.596, 583 466.007 C 567.875 463.847, 565.075 463.077, 558.238 459.203 C 551.654 455.472, 545 450.383, 545 449.078 C 545 448.752, 550.191 448.651, 556.536 448.852 C 567.020 449.185, 591.349 447.676, 596.656 446.364 C 597.841 446.070, 599.036 444.969, 599.312 443.915 C 599.772 442.157, 599.183 441.992, 592.156 441.899 C 581.144 441.753, 578.167 441.330, 572.014 439.041 C 568.997 437.918, 565.932 437, 565.202 437 C 564.473 437, 560.557 435.381, 556.500 433.403 C 549.531 430.005, 543.126 424.583, 532.127 412.773 L 528.754 409.151 533.627 407.634 C 542.994 404.719, 551.551 400.688, 558 396.152 C 561.575 393.638, 568.550 388.799, 573.500 385.400 C 578.450 382.001, 583.342 378.288, 584.371 377.147 C 586.455 374.840, 585.972 372.282, 583.273 371.328 C 582.298 370.984, 580.554 369.853, 579.398 368.816 C 575.865 365.645, 559.108 355.401, 547.639 349.399 C 541.665 346.273, 534.533 342.204, 531.788 340.358 C 529.044 338.511, 526.465 337, 526.056 337 C 525.648 337, 522.190 334.863, 518.372 332.250 C 514.554 329.637, 510.710 327.050, 509.830 326.500 C 508.951 325.950, 503.663 322.350, 498.080 318.500 C 492.498 314.650, 486.413 310.600, 484.559 309.500 C 482.705 308.400, 478.502 305.622, 475.219 303.327 C 471.935 301.032, 466.605 297.816, 463.374 296.180 C 457.291 293.100, 453.588 289.310, 446.289 278.690 C 440.784 270.681, 420.569 249.332, 413.216 243.760 C 410.072 241.379, 403.450 236.791, 398.500 233.566 C 393.550 230.340, 387.925 226.671, 386 225.413 C 384.075 224.154, 380.653 222.084, 378.395 220.812 C 376.137 219.540, 372.370 216.935, 370.025 215.022 C 365.917 211.672, 365.497 211.556, 358.630 211.871 C 354.708 212.051, 351.177 212.396, 350.782 212.638 C 350.387 212.880, 345.437 213.538, 339.782 214.100 C 334.127 214.661, 327.138 215.374, 324.252 215.684 C 321.025 216.030, 318.483 215.816, 317.654 215.128 C 316.912 214.512, 313.599 212.544, 310.292 210.754 C 306.985 208.964, 301.854 205.400, 298.890 202.833 C 295.925 200.266, 291.250 196.276, 288.500 193.964 C 285.750 191.653, 281.250 187.677, 278.500 185.128 C 275.750 182.580, 269.675 177.143, 265 173.047 C 251.415 161.144, 231.265 139.895, 231.750 137.984 C 231.888 137.443, 231.626 137.112, 231.170 137.250 C 230.143 137.559, 221.694 128.281, 216.703 121.364 C 212.712 115.833, 210.464 114.093, 205 112.304 C 200.284 110.760, 185.987 109.830, 183.500 110.905 M 187 114.649 C 187 114.815, 187.898 116.425, 188.996 118.226 C 190.094 120.027, 190.994 123.248, 190.996 125.384 C 191.005 134.767, 193.851 138.758, 201.745 140.458 C 204.551 141.062, 205.106 140.842, 205.849 138.828 C 206.969 135.791, 205.785 126.601, 203.599 121.362 C 202.123 117.825, 201.265 117.070, 197.686 116.160 C 193.229 115.027, 187 114.146, 187 114.649 M 224.667 175.667 C 223.228 177.105, 224.279 178.047, 231.750 182.016 C 239.819 186.303, 247.895 194.348, 255.239 205.413 C 262.274 216.011, 263.653 218.154, 267.976 225.202 C 270.438 229.216, 273.615 234.750, 275.034 237.500 C 276.454 240.250, 278.562 244.130, 279.719 246.122 C 282.176 250.354, 286.389 263.327, 290.910 280.583 C 291.866 284.229, 292.551 289.436, 294.847 310.489 C 295.432 315.852, 295.809 316.626, 298.451 317.890 C 300.074 318.666, 305.474 323.244, 310.451 328.063 C 317.743 335.124, 320.738 338.981, 325.878 347.930 C 331.960 358.519, 342 383.013, 342 387.263 C 342 390.760, 344.290 397.071, 345.417 396.678 C 348.294 395.674, 345.076 364.658, 340.425 348.568 C 339.641 345.856, 339 343.456, 339 343.234 C 339 340.296, 373.363 376.710, 386.968 394.066 C 401.826 413.021, 404.768 416.895, 407.275 420.813 C 410.033 425.121, 412.801 426.014, 412.171 422.392 C 411.990 421.352, 411.509 418.250, 411.101 415.500 C 409.990 408.019, 399.893 376.777, 397.865 374.550 C 397.389 374.028, 396.997 372.903, 396.994 372.050 C 396.990 371.197, 396.252 369.150, 395.352 367.500 C 394.452 365.850, 391.500 360.225, 388.791 355 C 386.082 349.775, 381.870 342.912, 379.433 339.749 C 376.995 336.585, 375 333.753, 375 333.455 C 375 333.157, 373.875 331.699, 372.500 330.217 C 371.125 328.734, 370 327.150, 370 326.698 C 370 326.246, 372.671 326.009, 375.934 326.170 C 379.198 326.332, 382.168 326.165, 382.535 325.799 C 383.712 324.621, 382.064 323.173, 378.739 322.461 C 376.957 322.081, 375.050 321.438, 374.500 321.033 C 373.249 320.112, 366.154 317.766, 354.500 314.421 C 349.550 313, 343.025 311.024, 340 310.030 C 329.727 306.653, 324.509 305.196, 320.211 304.503 C 314.919 303.649, 313.454 301.531, 312.600 293.500 C 311.049 278.915, 307.082 257.879, 305.235 254.454 C 302.084 248.610, 290.336 231.970, 282.956 222.898 C 272.691 210.281, 251.705 189.443, 243.500 183.720 C 237.332 179.418, 228.753 175, 226.567 175 C 225.889 175, 225.033 175.300, 224.667 175.667 M 311.250 243.672 C 309.058 244.539, 309.900 247.511, 313.250 250.734 C 316.983 254.325, 330.920 261.324, 339 263.665 C 342.025 264.542, 345.625 266.021, 347 266.952 C 349.894 268.911, 356.409 272, 357.651 272.001 C 358.118 272.001, 362.282 274.251, 366.904 277.001 C 376.132 282.491, 378 282.996, 378 280 C 378 278.900, 377.403 278, 376.674 278 C 375.945 278, 374.292 276.875, 373 275.500 C 371.708 274.125, 370.131 273, 369.496 273 C 367.602 273, 356.424 262.356, 353.188 257.471 C 351.536 254.976, 349.635 250.648, 348.965 247.852 L 347.745 242.770 342.623 243.505 C 335.944 244.463, 317.067 244.687, 314.500 243.839 C 313.400 243.475, 311.938 243.400, 311.250 243.672 M 406 289.257 C 406 289.948, 406.410 291.942, 406.910 293.688 C 408.424 298.966, 406.630 300.275, 397.689 300.414 C 388.347 300.560, 386.840 301.662, 390.568 305.621 C 396.925 312.372, 401.129 319.418, 403.024 326.500 C 403.465 328.150, 404.501 331.975, 405.325 335 C 406.149 338.025, 407.140 342.643, 407.527 345.262 C 407.914 347.882, 408.538 350.214, 408.913 350.446 C 410.819 351.624, 412.067 348.512, 413.161 339.848 C 414.344 330.483, 413.723 323.972, 410.338 310.250 C 409.914 308.531, 410.222 307.992, 411.642 307.968 C 416.293 307.889, 418.075 303.957, 415.970 298.421 C 413.598 292.182, 406 285.198, 406 289.257 M 297.593 344.850 C 297.304 345.317, 296.551 351.054, 295.919 357.600 C 295.287 364.145, 294.416 370.175, 293.984 371 C 293.551 371.825, 292.865 374.750, 292.459 377.500 C 292.053 380.250, 289.533 387.537, 286.860 393.694 C 284.187 399.850, 282 405.164, 282 405.503 C 282 406.080, 278.250 414.162, 270.403 430.500 C 268.554 434.350, 265.895 439.390, 264.494 441.700 L 261.946 445.901 264.120 447.064 C 266.888 448.546, 272.176 447.073, 278.788 442.980 C 281.380 441.376, 285.131 439.169, 287.124 438.076 C 290.625 436.156, 293.866 432.895, 297.001 428.141 C 298.412 426, 298.514 426.300, 298.711 433.182 C 299.201 450.354, 304.181 476.648, 308.538 485.073 C 309.342 486.628, 310 488.733, 310 489.750 C 310 491.647, 311.772 494, 313.200 494 C 313.640 494, 314 488.150, 314 481 C 314 472.736, 314.376 468, 315.031 468 C 315.599 468, 316.331 468.788, 316.659 469.750 C 318.675 475.661, 327.787 493.245, 331.614 498.608 C 338.676 508.504, 358.963 526, 363.377 526 C 365.795 526, 365.342 523.666, 362.391 520.924 C 359.018 517.791, 351.784 506.634, 349.796 501.500 C 348.945 499.300, 347.484 493.675, 346.551 489 C 345.618 484.325, 344.438 478.613, 343.928 476.307 C 343.417 474.001, 342.994 469.951, 342.988 467.307 C 342.974 461.707, 345.684 440.104, 347.041 435 C 349.004 427.617, 351.857 419.177, 353.396 416.201 C 355.413 412.300, 355.400 412, 353.215 412 C 349.706 412, 337.324 439.868, 335.351 452.205 C 335.017 454.292, 334.464 456, 334.122 455.999 C 333.459 455.999, 327.905 442.400, 323.502 430 C 322.038 425.875, 320.442 421.600, 319.955 420.500 C 317.636 415.258, 314.738 405.660, 313.010 397.500 C 308.114 374.386, 304.922 360.002, 303.469 354.500 C 302.598 351.200, 301.633 347.488, 301.326 346.250 C 300.772 344.023, 298.606 343.210, 297.593 344.850 M 573.813 361.683 C 574.534 361.972, 575.397 361.936, 575.729 361.604 C 576.061 361.272, 575.471 361.036, 574.417 361.079 C 573.252 361.127, 573.015 361.364, 573.813 361.683 M 439.461 381.063 C 439.100 381.648, 439.464 382.885, 440.271 383.813 C 442.336 386.186, 443.280 390.427, 443.486 398.249 C 443.584 401.961, 443.962 405.296, 444.326 405.659 C 445.348 406.681, 449 402.919, 449 400.845 C 449 398.365, 450.037 398.546, 452.855 401.517 C 455.762 404.582, 458 404.713, 458 401.819 C 458 398.571, 443.376 380, 440.819 380 C 440.434 380, 439.822 380.478, 439.461 381.063 M 356.481 395.030 C 356.109 395.633, 356.523 396.921, 357.402 397.892 C 358.281 398.863, 359 400.320, 359 401.129 C 359 401.938, 359.370 403.028, 359.823 403.550 C 360.276 404.072, 361.465 407.200, 362.464 410.500 C 363.464 413.800, 364.625 417.625, 365.045 419 C 366.219 422.843, 367.686 429.617, 369.485 439.500 C 370.387 444.450, 371.532 450.300, 372.032 452.500 C 373.871 460.604, 376.095 481.664, 375.675 487 C 375.437 490.025, 374.698 496.325, 374.032 501 C 372.428 512.266, 372.343 512.776, 371.190 518 C 370.644 520.475, 369.696 524.959, 369.084 527.965 C 368.471 530.971, 367.527 533.873, 366.985 534.415 C 365.516 535.884, 365.796 538, 367.459 538 C 368.890 538, 370.952 534.048, 379.198 515.500 C 381.399 510.550, 384.030 504.700, 385.045 502.500 C 386.061 500.300, 387.748 495.170, 388.794 491.100 C 390.784 483.363, 392.599 482.387, 390.895 489.971 C 390.356 492.371, 390.123 494.879, 390.379 495.544 C 390.634 496.210, 390.391 498.722, 389.838 501.127 C 389.285 503.532, 388.435 508.650, 387.948 512.500 C 386.131 526.870, 385.150 533.577, 384.476 536.250 C 383.492 540.155, 386.571 539.889, 390.637 535.718 C 394.497 531.760, 404 513.702, 404 510.328 C 404 509.628, 405.101 506.680, 406.446 503.777 C 407.791 500.875, 409.660 496.025, 410.598 493 C 411.537 489.975, 412.637 487.050, 413.043 486.500 C 414.163 484.981, 423.583 451.563, 425.386 442.710 C 426.258 438.426, 427.449 434.029, 428.032 432.940 C 429.210 430.739, 428.569 429, 426.580 429 C 425.849 429, 424.334 431.994, 423.121 435.836 C 420.943 442.737, 413.655 453.859, 411.250 453.952 C 410.563 453.978, 410 453.639, 410 453.199 C 410 451.502, 401.303 439.100, 394.069 430.482 C 389.906 425.522, 385.152 419.672, 383.504 417.482 C 380.408 413.367, 369.994 402.655, 366.491 399.981 C 361.359 396.064, 357.134 393.974, 356.481 395.030 M 479.667 502.667 C 478.726 503.607, 478.837 507.416, 479.838 508.550 C 480.601 509.415, 482.268 516.621, 484.985 530.799 C 485.543 533.714, 486 537.849, 486 539.989 C 486 543.588, 486.418 544.166, 491.568 547.690 C 497.772 551.935, 501.495 554.994, 514.015 566.129 C 523.468 574.537, 527.145 580.271, 532.138 594.392 C 534.210 600.249, 534.986 604.280, 534.948 608.992 L 534.896 615.500 532.616 609.367 C 526.609 593.206, 506.605 566.246, 493.666 556.873 C 486.103 551.394, 476.945 548.297, 477.040 551.250 C 477.062 551.938, 480.434 556.077, 484.534 560.450 C 492.414 568.855, 497.017 576.942, 501.085 589.535 C 502.956 595.326, 503.187 597.705, 502.680 605.905 C 502.015 616.671, 498.772 629.348, 494.105 639.431 C 492.397 643.121, 491 646.558, 491 647.070 C 491 647.581, 490.580 648, 490.067 648 C 489.554 648, 488.884 648.788, 488.577 649.750 C 488.270 650.712, 486.057 653.698, 483.658 656.383 L 479.296 661.267 478.759 650.383 C 478.170 638.429, 474.240 620.478, 470.655 613.363 C 466.476 605.072, 459.596 594.420, 453.868 587.375 C 445.689 577.314, 436 569.452, 436 572.875 C 436 573.356, 437.506 577.069, 439.348 581.125 C 441.189 585.181, 443.676 591.650, 444.876 595.500 C 446.075 599.350, 447.525 603.969, 448.098 605.764 C 449.653 610.637, 450.822 633.880, 449.865 640.880 C 448.289 652.405, 442.608 661.138, 433.776 665.613 C 420.936 672.120, 413 684.078, 413 696.919 C 413 700.749, 413.450 704.160, 414 704.500 C 414.550 704.840, 414.999 705.654, 414.997 706.309 C 414.994 707.826, 407.967 699.903, 404.071 693.990 C 400.642 688.786, 398 679.630, 398 672.953 C 398 668.478, 400.263 652.104, 401.587 647 C 401.944 645.625, 405.635 637.658, 409.789 629.296 C 415.496 617.808, 418.800 612.478, 423.308 607.483 C 427.689 602.629, 428.978 600.578, 428.160 599.760 C 427.343 598.943, 426.576 599.062, 425.274 600.207 C 424.298 601.065, 421.475 602.772, 419 604.001 C 407.021 609.949, 392.143 622.127, 385.789 631.185 C 383.536 634.397, 381.503 636.836, 381.271 636.604 C 381.039 636.372, 383.409 631.304, 386.538 625.341 C 392.747 613.510, 401.922 599.445, 410.572 588.500 C 416.994 580.373, 418.510 577.216, 420.039 568.784 C 420.878 564.155, 420.863 561.495, 419.975 558.064 C 416.454 544.453, 414.327 540, 411.345 540 C 410.372 540, 410 541.615, 410 545.845 C 410 556.703, 404.563 568.609, 395.671 577.225 C 391.127 581.627, 377.404 589.317, 370.284 591.449 L 368.069 592.113 370.096 586.306 C 372.865 578.374, 372.442 564.558, 369.228 558 C 366.252 551.925, 361.726 545.615, 360.500 545.830 C 359.950 545.926, 359.411 547.466, 359.303 549.252 C 358.274 566.242, 354.180 574.294, 337.060 593 C 324.248 606.998, 319.281 613.714, 312.951 625.592 C 310.736 629.749, 308.521 633.903, 308.029 634.825 C 305.037 640.426, 301 649.520, 301 650.660 C 301 653.696, 303.856 651.631, 307.550 645.922 C 310.998 640.595, 320 631.660, 320 633.565 C 320 633.949, 318.988 635.886, 317.750 637.868 C 313.023 645.439, 307 657.114, 307 658.705 C 307 659.211, 306.159 661.396, 305.132 663.562 C 301.232 671.781, 300.092 674.676, 298.462 680.500 C 297.538 683.800, 296.424 687.214, 295.985 688.087 C 294.347 691.344, 286.912 719.328, 287.368 720.517 C 287.629 721.197, 287.394 723.722, 286.846 726.127 C 282.991 743.047, 281.874 764.156, 284.173 776.635 C 285.107 781.705, 285.718 783, 287.173 783 C 288.746 783, 289.002 782.130, 289.017 776.750 C 289.048 765.923, 291.551 753.971, 295.579 745.419 C 301.229 733.427, 303.176 729.645, 304.548 728 C 305.236 727.175, 308.572 721.447, 311.960 715.272 C 318.086 704.106, 320.972 700.290, 319.656 705.094 C 317.979 711.218, 317.877 725.871, 319.440 736 C 320.332 741.775, 321.333 748.750, 321.666 751.500 C 322.504 758.427, 328.051 769.914, 335.427 780 C 344.372 792.231, 352.830 805.473, 353.563 808.397 C 354.300 811.331, 356.484 813.437, 357.890 812.568 C 358.478 812.205, 358.643 808.481, 358.304 803.232 C 357.744 794.570, 359.375 779.434, 362.584 763.500 C 365.183 750.594, 364.549 751.250, 368.998 756.878 C 371.161 759.615, 378.202 766.050, 384.644 771.178 C 391.086 776.305, 398.258 782.334, 400.583 784.576 C 409.141 792.828, 426.646 820.005, 433.022 834.937 C 436.246 842.486, 437.779 845, 439.160 845 C 441.218 845, 441.410 844.153, 440.112 840.797 C 439.623 839.534, 438.710 835.125, 438.082 831 C 436.083 817.858, 427.468 791.869, 418.942 773.261 C 417.874 770.929, 417 768.749, 417 768.416 C 417 767.641, 425.023 772.320, 431.500 776.872 C 434.250 778.805, 438.366 781.650, 440.648 783.195 C 445.364 786.389, 461 801.563, 461 802.946 C 461 803.447, 461.563 804.452, 462.252 805.179 C 465.439 808.543, 468.797 814.942, 469.264 818.540 C 469.547 820.718, 470.325 825.612, 470.993 829.416 C 472.721 839.251, 470.862 848.426, 462.771 870 C 458.125 882.388, 451.539 893.667, 443.046 903.782 C 434.449 914.022, 434.891 914.913, 446.176 910.098 C 456.156 905.839, 476.705 889.203, 489.423 875.084 C 495.830 867.972, 508.826 847.640, 510.501 842.108 C 510.899 840.793, 512.917 836.068, 514.985 831.608 C 519.999 820.796, 522.279 811.275, 522.195 801.500 C 522.123 792.966, 520.377 778.964, 518.924 775.250 C 518.375 773.850, 518.412 773, 519.021 773 C 519.560 773, 520 773.404, 520 773.898 C 520 775.079, 549.847 805.196, 557.316 811.552 C 564.031 817.265, 574.699 823.907, 577.250 823.962 C 579.625 824.014, 579.452 821.812, 576.853 818.903 C 573.904 815.601, 563.252 793.098, 561.876 787.261 C 561.258 784.643, 560.321 781.384, 559.794 780.021 C 559.266 778.657, 558.575 771.719, 558.259 764.603 C 557.705 752.146, 557.754 751.694, 559.592 752.467 C 560.641 752.908, 563.300 753.918, 565.500 754.711 C 567.700 755.504, 570.850 756.776, 572.500 757.536 C 576.941 759.583, 590.450 762.862, 599 763.968 C 622.221 766.972, 649.846 763.136, 657.678 755.821 C 661.341 752.399, 659.707 751.261, 651.194 751.303 C 637.678 751.372, 621.575 746.411, 601 735.840 C 585.758 728.009, 575.958 721.169, 567.766 712.644 C 562.281 706.936, 553.037 694.304, 551.682 690.667 C 550.535 687.587, 548.532 689.410, 547.932 694.080 C 547.239 699.480, 543.743 706.953, 540.474 710.024 C 538.130 712.227, 537.675 712.276, 526.775 711.506 C 513.261 710.551, 507.558 710.548, 503.349 711.492 L 500.197 712.198 502.471 707.349 C 505.395 701.112, 506.587 689.180, 504.562 686.428 C 503.165 684.530, 503.133 684.531, 502.519 686.500 C 500.042 694.440, 490.013 707.390, 483.889 710.558 C 480.814 712.148, 471.310 712.482, 469.092 711.078 C 467.892 710.318, 467.920 709.688, 469.284 706.814 C 471.240 702.692, 482.720 689.497, 486.643 686.861 C 491.210 683.792, 500.858 679.434, 509.500 676.535 C 513.900 675.059, 521.735 671.769, 526.912 669.225 C 536.732 664.398, 539.233 661.942, 544.750 651.705 C 545.987 649.409, 547.023 647.749, 547.052 648.015 C 547.080 648.282, 547.357 653, 547.668 658.500 C 547.978 664, 548.445 668.725, 548.706 669 C 549.668 670.016, 553.802 663.625, 554.447 660.122 C 554.814 658.130, 555.488 652.225, 555.946 647 C 557.742 626.465, 550.487 588.001, 541.799 572 C 523.053 537.475, 507.238 518.446, 487.750 506.965 C 484.587 505.102, 482 503.223, 482 502.789 C 482 501.827, 480.581 501.753, 479.667 502.667 M 306.899 520.250 C 306.843 528.638, 306.874 536.917, 306.967 538.649 C 307.060 540.381, 306.655 542.095, 306.068 542.458 C 305.481 542.821, 305 544.426, 305 546.024 C 305 547.622, 304.377 550.858, 303.616 553.215 C 302.854 555.572, 301.639 559.609, 300.916 562.186 C 299.430 567.482, 297.597 567.667, 298.581 562.422 C 299.565 557.177, 296.652 558.006, 293.917 563.750 C 287.361 577.518, 279.587 588.678, 269.632 598.608 C 254.546 613.659, 249.336 617.904, 230.558 630.447 C 217.993 638.840, 210.314 644.861, 201.652 653.110 C 191.048 663.208, 170.912 678.888, 163.769 682.609 C 161.045 684.028, 161.040 684.025, 162.065 681.329 C 164.390 675.214, 178.915 652.426, 185.169 645.082 C 196.500 631.776, 213.746 618.391, 232 608.735 C 237.775 605.681, 244.661 602.016, 247.303 600.591 C 249.945 599.166, 252.790 598, 253.626 598 C 254.539 598, 255.009 597.301, 254.801 596.250 C 254.340 593.909, 249.342 594.114, 237 596.979 C 229.016 598.833, 224.309 599.203, 207.500 599.298 C 193.667 599.377, 185.604 598.983, 181.351 598.022 L 175.201 596.632 185.351 593.327 C 196.281 589.767, 200.605 589.409, 212.556 591.071 C 222.118 592.401, 223.971 591.269, 218.198 587.625 C 215.980 586.225, 213 584.787, 211.574 584.429 C 210.148 584.071, 208.753 583.410, 208.475 582.959 C 207.892 582.016, 200.200 581.016, 191.500 580.754 C 183.354 580.508, 175.228 581.647, 164.500 584.538 C 151.946 587.921, 138.615 590.068, 134.756 589.328 C 132.965 588.984, 130.247 587.828, 128.715 586.758 C 126.023 584.879, 123 584.943, 123 586.879 C 123 589.469, 131.140 597.715, 136.102 600.150 C 147.513 605.751, 167.410 610.997, 177.250 610.999 C 182.872 611, 183.355 612.108, 178.499 613.864 C 170.970 616.587, 158.053 627.634, 152 636.527 C 147.378 643.318, 145 647.009, 145 647.393 C 145 647.631, 143.425 650.217, 141.500 653.140 C 139.575 656.063, 138 658.976, 138 659.613 C 138 660.250, 137.328 662.060, 136.506 663.636 C 135.251 666.041, 135.233 666.549, 136.397 666.802 C 137.160 666.969, 138.953 666.021, 140.382 664.697 C 143.098 662.180, 152.921 656.570, 159.114 654 C 161.102 653.175, 163.475 651.873, 164.388 651.107 C 167.694 648.335, 166.831 650.711, 162.554 656.160 C 157.318 662.832, 150.600 675.988, 143.744 693 C 143.190 694.375, 141.883 697.160, 140.839 699.188 C 139.364 702.054, 136.074 711.297, 136.011 712.750 C 135.945 714.261, 139.288 711.849, 144.457 706.655 C 147.930 703.165, 153.860 698.612, 157.636 696.538 C 161.411 694.464, 166.077 691.582, 168.004 690.134 C 172.499 686.755, 174.923 685.243, 177.881 683.973 C 179.190 683.410, 181.578 682.012, 183.188 680.866 C 184.798 679.720, 186.309 678.976, 186.547 679.213 C 186.784 679.451, 186.346 681.412, 185.573 683.573 C 184.801 685.733, 183.661 690.875, 183.040 695 C 182.420 699.125, 181.488 704.525, 180.968 707 C 179.818 712.477, 179.477 744.325, 180.524 748.500 C 181.757 753.421, 183.137 754.532, 184.643 751.818 C 185.350 750.543, 185.945 748.780, 185.965 747.901 C 186.026 745.139, 192.925 733.110, 199.891 723.621 C 210.303 709.435, 220.837 689.991, 222.439 682 C 222.825 680.075, 223.748 676.475, 224.491 674 C 225.233 671.525, 226.169 667.250, 226.572 664.500 L 227.303 659.500 228.172 663.422 C 229.840 670.957, 232.362 671.940, 234.141 665.750 C 235.713 660.280, 242.742 649.259, 248.770 642.815 C 253.583 637.669, 270 624.454, 270 625.725 C 270 627.723, 261.590 642.948, 258.915 645.793 C 257.116 647.706, 256.057 649.707, 256.389 650.570 C 256.863 651.806, 257.842 651.607, 262.229 649.386 C 278.360 641.220, 292.875 624.575, 302.652 603.034 C 306.961 593.540, 307.817 590.340, 310.022 575.500 C 310.675 571.100, 311.416 566.375, 311.667 565 C 311.918 563.625, 312.516 555.300, 312.996 546.500 C 314.259 523.336, 311.998 505, 307.878 505 C 307.395 505, 306.954 511.863, 306.899 520.250 M 652 587.059 C 652 587.641, 652.450 587.840, 653 587.500 C 653.550 587.160, 654 586.684, 654 586.441 C 654 586.198, 653.550 586, 653 586 C 652.450 586, 652 586.477, 652 587.059 M 154.500 660 C 154.840 660.550, 155.316 661, 155.559 661 C 155.802 661, 156 660.550, 156 660 C 156 659.450, 155.523 659, 154.941 659 C 154.359 659, 154.160 659.450, 154.500 660 M 151 661.500 C 151 662.325, 151.436 663, 151.969 663 C 152.501 663, 152.678 662.325, 152.362 661.500 C 152.045 660.675, 151.609 660, 151.393 660 C 151.177 660, 151 660.675, 151 661.500 M 268.675 672.664 C 258.070 679.817, 242.784 695.600, 235.718 706.693 C 234.248 709, 231.124 712.667, 228.773 714.843 C 226.423 717.019, 220.080 723.007, 214.678 728.150 C 209.276 733.292, 204.178 737.880, 203.349 738.344 C 201.116 739.595, 189.968 755.139, 190.586 756.140 C 191.469 757.567, 192.446 757.149, 196.172 753.750 C 198.445 751.676, 202.766 749.487, 208.117 747.698 C 212.728 746.157, 217.400 744.512, 218.500 744.042 C 219.600 743.572, 223.425 742.419, 227 741.479 C 238.804 738.375, 245.916 733.712, 255.500 722.791 C 258.800 719.030, 262.704 713.377, 264.176 710.227 C 270.260 697.209, 272.298 692.226, 273.646 687.075 C 275.293 680.781, 279.637 672.353, 281.627 671.590 C 282.382 671.300, 283 670.374, 283 669.531 C 283 668.423, 281.964 668.009, 279.250 668.031 C 276.480 668.054, 273.716 669.265, 268.675 672.664 M 560 674.759 C 560 675.727, 560.822 677.032, 561.827 677.660 C 564.312 679.212, 577.253 700.110, 581.501 709.434 L 584.949 716.999 589.224 715.099 C 597.787 711.295, 610.964 709.403, 619 710.823 C 630.057 712.777, 636.833 715.231, 652.867 723.083 C 661.869 727.492, 669.417 730.917, 669.639 730.694 C 671.598 728.735, 661.278 719.258, 648.840 711.594 C 645.353 709.446, 638.533 705.025, 633.684 701.770 C 626.048 696.644, 607.416 687, 605.150 687 C 604.724 687, 602.513 686.100, 600.236 685 C 597.959 683.900, 595.681 683, 595.173 683 C 594.665 683, 591.617 681.836, 588.399 680.413 C 582.341 677.734, 565.475 673, 561.987 673 C 560.757 673, 560 673.670, 560 674.759 M 578.478 772.393 C 576.651 773.728, 576.721 773.949, 580.191 777.789 C 582.180 779.992, 584.526 783.415, 585.404 785.397 C 586.282 787.379, 587.750 790.688, 588.667 792.750 C 594.847 806.657, 595.760 822.349, 591.455 840.670 C 586.382 862.262, 585.779 864.443, 583.386 869.855 C 579.552 878.524, 581.818 878.537, 594.500 869.918 C 602.694 864.349, 608.626 855.867, 612.277 844.500 C 618.734 824.392, 619.029 822.915, 619.014 810.872 C 619.003 801.683, 619.318 798.981, 620.518 797.985 C 622.754 796.130, 631.374 797.445, 637.591 800.590 C 640.461 802.042, 643.414 803.017, 644.154 802.755 C 646.108 802.065, 632.411 788.663, 627.500 786.460 C 625.300 785.472, 622.825 784.120, 622 783.455 C 619.440 781.390, 602.250 775.030, 593.670 772.973 C 583.955 770.644, 581.023 770.532, 578.478 772.393 M 444 897.059 C 444 897.641, 444.450 897.840, 445 897.500 C 445.550 897.160, 446 896.684, 446 896.441 C 446 896.198, 445.550 896, 445 896 C 444.450 896, 444 896.477, 444 897.059" stroke="none" fill="#000000" fill-rule="evenodd"/>
</svg>