<svg xmlns="http://www.w3.org/2000/svg" width="1920" height="1920" viewBox="0 0 1920 1920" version="1.1">
	<path d="M 1222.533 356.750 C 1223.536 362.461, 1227.997 402.853, 1228.524 411 C 1228.827 415.675, 1231.270 438.400, 1233.953 461.500 C 1236.636 484.600, 1238.839 504.964, 1238.849 506.753 C 1238.867 510.116, 1240.632 527.027, 1241.562 532.750 C 1241.853 534.538, 1242.461 536, 1242.915 536 C 1243.368 536, 1245.935 534.276, 1248.619 532.168 C 1252.836 528.857, 1261.664 522.681, 1279.995 510.218 C 1282.920 508.230, 1284.880 507.485, 1285.604 508.087 C 1286.217 508.595, 1288.211 512.946, 1290.036 517.755 C 1291.861 522.565, 1293.647 526.950, 1294.005 527.500 C 1294.363 528.050, 1295.468 530.750, 1296.461 533.500 C 1297.453 536.250, 1299.331 540.876, 1300.633 543.780 C 1301.935 546.683, 1303 549.651, 1303 550.373 C 1303 551.096, 1305.248 558.079, 1307.996 565.891 C 1310.744 573.703, 1313.190 581.536, 1313.431 583.297 C 1313.673 585.059, 1314.528 588.750, 1315.332 591.500 C 1317.221 597.961, 1322.756 621.465, 1323.456 626 C 1323.753 627.925, 1324.231 631.700, 1324.518 634.388 C 1324.805 637.076, 1325.687 643.601, 1326.478 648.888 C 1331.268 680.901, 1331.278 720.596, 1326.502 755 C 1325.700 760.775, 1324.815 767.585, 1324.533 770.133 C 1323.906 775.818, 1321.782 785.884, 1318.972 796.500 C 1317.807 800.900, 1315.812 808.550, 1314.539 813.500 C 1313.266 818.450, 1311.014 825.650, 1309.535 829.500 C 1308.055 833.350, 1305.747 839.805, 1304.405 843.843 C 1303.063 847.882, 1301.019 853.282, 1299.862 855.843 C 1290.589 876.379, 1287.275 883.255, 1281.874 893.163 C 1278.475 899.398, 1274.638 906.179, 1273.347 908.230 C 1272.056 910.282, 1271 912.200, 1271 912.494 C 1271 913.518, 1249.669 944.557, 1244.107 951.626 C 1233.964 964.518, 1220.748 979.289, 1207.019 993.078 C 1192.670 1007.489, 1169.776 1028, 1168.039 1028 C 1167.468 1028, 1167 1028.423, 1167 1028.940 C 1167 1029.769, 1161.887 1033.545, 1137.500 1050.729 C 1130.411 1055.724, 1110.267 1068, 1109.160 1068 C 1108.736 1068, 1106.976 1069.042, 1105.249 1070.317 C 1098.723 1075.131, 1049.977 1098.226, 1043.514 1099.565 C 1042.422 1099.791, 1037.472 1101.542, 1032.514 1103.456 C 1023.132 1107.077, 1010.950 1111.093, 1007.500 1111.700 C 1006.400 1111.894, 1000.100 1113.588, 993.500 1115.466 C 980.952 1119.036, 969.900 1121.624, 966.500 1121.789 C 965.400 1121.842, 957.901 1123.033, 949.835 1124.435 C 904.093 1132.384, 853.453 1132.066, 808.500 1123.547 C 804.100 1122.713, 798.688 1121.807, 796.474 1121.532 C 780.008 1119.490, 729.707 1102.909, 710.151 1093.076 C 705.673 1090.824, 701.894 1089.053, 701.754 1089.139 C 701.181 1089.492, 680.874 1078.719, 670 1072.293 C 655.404 1063.666, 627.545 1044.885, 626.826 1043.187 C 626.647 1042.763, 623.125 1039.762, 619 1036.518 C 593.799 1016.699, 569.126 991.736, 544.004 960.638 C 543.177 959.615, 541.938 958.184, 541.250 957.460 C 540.562 956.735, 540 955.909, 540 955.623 C 540 955.337, 538.825 953.842, 537.388 952.302 C 535.951 950.761, 530.930 943.875, 526.229 937 C 516.394 922.617, 516.242 922.424, 515.410 923.257 C 514.658 924.008, 526.349 946.329, 533.344 957.500 C 536.099 961.900, 540.417 968.875, 542.939 973 C 547.064 979.747, 555.841 992.578, 558.478 995.715 C 559.732 997.206, 560.573 998.277, 564.992 1004 C 588.677 1034.680, 614.364 1060.369, 647.055 1086.071 C 658.728 1095.249, 691.727 1118, 693.365 1118 C 693.683 1118, 697.443 1120.074, 701.721 1122.609 C 718.893 1132.782, 744.147 1144.611, 766.500 1152.951 C 784.732 1159.753, 819.916 1170.291, 828.500 1171.520 C 830.700 1171.836, 839.250 1173.408, 847.500 1175.014 C 874.877 1180.344, 894.006 1181.985, 929.062 1182.012 C 956.698 1182.034, 962.919 1181.734, 980.500 1179.535 C 991.500 1178.159, 1006.125 1175.941, 1013 1174.604 C 1019.875 1173.268, 1027.300 1171.898, 1029.500 1171.560 C 1040.802 1169.821, 1078.825 1158.034, 1099.500 1149.861 C 1130.580 1137.573, 1168.950 1116.828, 1195.423 1098 C 1205.159 1091.075, 1226.257 1074.643, 1234 1067.953 C 1260.685 1044.900, 1291.617 1010.922, 1309.517 985 C 1311.606 981.975, 1313.635 979.275, 1314.026 979 C 1315.224 978.159, 1326.511 960.869, 1330.021 954.500 C 1331.840 951.200, 1334.123 947.600, 1335.095 946.500 C 1338.459 942.693, 1363.995 892.563, 1364.004 889.751 C 1364.006 889.063, 1364.834 887.145, 1365.844 885.488 C 1367.738 882.383, 1380.548 847.764, 1383.416 838 C 1389.929 815.829, 1394.610 796.863, 1395.482 789.105 C 1395.816 786.138, 1396.724 780.688, 1397.501 776.995 C 1402.364 753.875, 1405.115 714.450, 1403.954 684.500 C 1403.075 661.814, 1401.970 650.916, 1398.377 629.500 C 1396.993 621.250, 1395.656 612.931, 1395.406 611.014 C 1394.855 606.784, 1388.512 582.254, 1386.352 576 C 1385.497 573.525, 1384.578 570.150, 1384.309 568.500 C 1384.040 566.850, 1381.818 560.325, 1379.371 554 C 1376.925 547.675, 1374.758 541.825, 1374.557 541 C 1373.827 538.008, 1369.821 528.375, 1367.071 523 C 1365.524 519.975, 1363.911 516.375, 1363.486 515 C 1362.695 512.438, 1349.914 487.965, 1342.904 475.589 C 1340.751 471.787, 1339.185 468.481, 1339.425 468.242 C 1339.930 467.736, 1361.037 452.704, 1368.750 447.357 C 1371.638 445.355, 1374 443.182, 1374 442.527 C 1374 441.873, 1372.763 440.713, 1371.250 439.949 C 1369.737 439.185, 1365.575 436.715, 1362 434.460 C 1358.425 432.205, 1351.900 428.414, 1347.500 426.035 C 1343.100 423.656, 1339.275 421.385, 1339 420.989 C 1338.725 420.593, 1336.614 419.312, 1334.308 418.144 C 1332.002 416.975, 1323.314 411.960, 1315 407 C 1306.686 402.040, 1297.998 397.025, 1295.692 395.857 C 1293.386 394.688, 1289.700 392.513, 1287.500 391.024 C 1285.300 389.534, 1278.100 385.233, 1271.500 381.465 C 1254.861 371.968, 1237.616 361.925, 1230.559 357.622 C 1223.320 353.209, 1221.884 353.053, 1222.533 356.750 M 930.500 535.674 C 915.739 537.516, 892.953 546.116, 884.646 552.981 C 882.042 555.133, 879.144 557.183, 878.206 557.537 C 876.295 558.258, 861.811 574.236, 858.216 579.588 C 855.223 584.042, 846.174 603.897, 845.037 608.500 C 841.667 622.155, 841.664 646.389, 845.031 660.500 C 845.687 663.250, 848.611 670.539, 851.528 676.698 C 867.278 709.951, 899.284 731.405, 936.517 733.667 C 963.044 735.278, 992.139 723.985, 1011.532 704.550 C 1021.218 694.844, 1032.904 676.742, 1034.484 669 C 1034.652 668.175, 1035.714 664.350, 1036.844 660.500 C 1041.680 644.028, 1041.670 623.836, 1036.819 608.161 C 1035.685 604.498, 1034.655 601.050, 1034.530 600.500 C 1032.550 591.798, 1020.999 573.758, 1011.114 563.930 C 990.773 543.706, 958.050 532.236, 930.500 535.674 M 714.500 560.406 C 711.200 561.072, 705.913 562.596, 702.750 563.794 C 699.587 564.992, 697 565.744, 697 565.466 C 697 564.722, 689.121 568.848, 684.500 572.013 C 682.300 573.519, 680.065 574.920, 679.534 575.126 C 679.003 575.332, 675.108 578.784, 670.879 582.798 C 652.633 600.114, 642.605 625.567, 644.349 650.134 C 644.998 659.276, 649.489 675.091, 653.970 684.009 C 656.319 688.686, 667.769 704.220, 669.351 704.876 C 669.850 705.083, 672.575 707.351, 675.407 709.915 C 682.568 716.400, 695.797 723.295, 706.509 726.125 C 714.179 728.151, 717.703 728.486, 730.500 728.406 C 741.852 728.335, 746.564 727.909, 749.876 726.656 C 752.282 725.745, 755.173 725, 756.300 725 C 758.657 725, 772.365 718.159, 779 713.672 C 787.947 707.621, 798.158 695.920, 804.261 684.724 C 807.417 678.933, 810 673.308, 810 672.223 C 810 671.139, 810.670 668.353, 811.489 666.032 C 814.277 658.129, 815.394 644.793, 814.069 635.208 C 811.159 614.148, 804.065 598.997, 791.027 586 C 780.051 575.058, 778.478 573.814, 770.307 569.610 C 752.364 560.378, 731.610 556.955, 714.500 560.406 M 1130.500 560.383 C 1117.529 563.247, 1105.506 568.011, 1099.250 572.767 C 1097.463 574.126, 1095.986 574.846, 1095.968 574.369 C 1095.951 573.891, 1095.370 574.244, 1094.679 575.153 C 1093.987 576.062, 1091.516 578.398, 1089.187 580.343 C 1085.148 583.719, 1077.925 592.030, 1073.382 598.531 C 1069.852 603.583, 1067.397 609.015, 1063.906 619.500 C 1060.717 629.080, 1060.578 630.131, 1060.609 644.500 C 1060.639 658.779, 1060.797 659.957, 1063.899 669 C 1067.549 679.641, 1072.903 690.678, 1076.267 694.498 C 1094.540 715.242, 1105.783 722.236, 1129.500 727.613 C 1138.357 729.621, 1159.198 729.010, 1166 726.543 C 1168.475 725.645, 1171.965 724.678, 1173.756 724.393 C 1175.546 724.108, 1181.571 721.315, 1187.144 718.187 C 1198.852 711.615, 1210.501 700.875, 1216.331 691.278 C 1221.030 683.543, 1225.966 672.975, 1226.575 669.348 C 1226.837 667.782, 1227.456 665.375, 1227.948 664 C 1230.367 657.254, 1231.268 644.883, 1230.012 635.682 C 1229.322 630.632, 1228.365 625.464, 1227.884 624.199 C 1227.404 622.933, 1226.785 620.458, 1226.509 618.699 C 1226.232 616.939, 1223.719 610.999, 1220.923 605.498 C 1215.912 595.638, 1211.276 589.157, 1205.607 584.087 C 1204.016 582.664, 1200.866 579.822, 1198.607 577.770 C 1192.915 572.601, 1180.953 566.532, 1169.310 562.907 C 1157.589 559.257, 1140.603 558.153, 1130.500 560.383 M 656.500 740.696 C 645.448 743.263, 633.414 748.690, 628.959 753.117 C 627.606 754.460, 625.600 756.221, 624.499 757.030 C 622.053 758.827, 614.969 768.240, 612.476 773.006 C 611.470 774.928, 609.741 779.425, 608.634 783 C 606.686 789.289, 606.610 792.637, 606.273 886.073 L 605.925 982.646 617.049 993.073 C 623.166 998.808, 629.629 1004.850, 631.410 1006.500 C 640.490 1014.912, 664.862 1032.120, 686.500 1045.396 C 702.263 1055.067, 747.880 1076.984, 752.295 1077.006 C 752.958 1077.010, 754.715 1077.646, 756.199 1078.420 C 758.599 1079.673, 768.902 1083, 770.379 1083 C 770.693 1083, 771.090 1023.712, 771.260 951.250 C 771.570 819.795, 771.575 819.484, 773.716 812.500 C 774.897 808.650, 776.599 803.475, 777.499 801 C 779.458 795.613, 786.091 784, 787.208 784 C 787.643 784, 788 783.388, 788 782.641 C 788 780.505, 805.115 765.199, 812.148 761.045 C 815.641 758.982, 820.862 756.464, 823.750 755.449 C 826.638 754.435, 829 753.032, 829 752.331 C 829 750.653, 814.153 743.611, 806.356 741.592 C 801.396 740.307, 794.387 740, 770.007 740 L 739.804 740 740.424 745.750 C 741.808 758.567, 746.120 818.790, 746.994 837.500 C 747.508 848.500, 749.066 872.050, 750.457 889.832 L 752.986 922.165 741.818 936.832 C 735.676 944.900, 730.515 951.677, 730.349 951.893 C 729.802 952.607, 726.748 949.572, 722.912 944.501 C 720.831 941.751, 716.175 935.694, 712.564 931.042 C 708.954 926.390, 706 921.613, 706 920.428 C 706 919.242, 706.890 906.848, 707.977 892.886 C 712.024 840.933, 713.958 813.359, 713.894 808.500 C 713.827 803.382, 713.940 801.637, 716.501 768 C 717.318 757.275, 717.989 746.587, 717.993 744.250 L 718 740 688.250 740.116 C 671.888 740.180, 657.600 740.441, 656.500 740.696 M 1066 742.341 C 1057.251 744.946, 1048 749.735, 1048 751.659 C 1048 752.397, 1048.563 753.002, 1049.250 753.004 C 1051.164 753.009, 1065.601 758.562, 1067.140 759.884 C 1067.888 760.527, 1070.736 762.499, 1073.470 764.266 C 1086.298 772.561, 1097.874 787.043, 1104.094 802.577 C 1110.146 817.691, 1109.964 813.745, 1109.983 929.750 C 1109.995 1006.636, 1110.305 1036, 1111.105 1036 C 1111.713 1036, 1114.075 1034.728, 1116.355 1033.172 C 1150.487 1009.887, 1170.020 991.834, 1205.332 950.938 C 1213.556 941.414, 1233.039 912.777, 1239.232 901.112 C 1241.455 896.925, 1243.695 892.965, 1244.209 892.310 C 1245.924 890.130, 1256.689 867.670, 1262.332 854.500 L 1267.902 841.500 1268.024 815 C 1268.121 793.677, 1267.845 787.566, 1266.611 783.720 C 1261.347 767.313, 1248.141 751.855, 1234.495 746.127 C 1220.569 740.281, 1218.334 740, 1185.790 740 C 1169.405 740, 1156.003 740.337, 1156.007 740.750 C 1156.010 741.163, 1157.368 759.050, 1159.025 780.500 C 1160.681 801.950, 1162.301 826.025, 1162.625 834 C 1162.948 841.975, 1164.460 865.121, 1165.985 885.435 L 1168.757 922.370 1163.700 928.935 C 1160.918 932.546, 1155.723 939.261, 1152.154 943.858 L 1145.666 952.215 1142.083 948.147 C 1140.112 945.909, 1136.824 941.924, 1134.775 939.289 C 1132.726 936.655, 1128.927 931.836, 1126.332 928.581 L 1121.614 922.661 1125.776 865.081 C 1128.065 833.411, 1130.173 802.550, 1130.460 796.500 C 1131.031 784.473, 1131.576 776.504, 1133.027 759 C 1133.551 752.675, 1133.984 745.813, 1133.990 743.750 L 1134 740 1103.750 740.054 C 1075.439 740.104, 1073.019 740.250, 1066 742.341 M 921.500 757.732 C 919.300 757.860, 900.625 758.119, 880 758.309 L 842.500 758.654 834.500 761.669 C 823.651 765.758, 816.625 769.683, 811.117 774.733 C 808.578 777.061, 806.195 778.974, 805.823 778.983 C 805.450 778.992, 802.359 782.436, 798.954 786.636 C 792.169 795.005, 788.737 801.327, 784.370 813.500 L 781.500 821.500 781.225 953.425 C 781.041 1041.693, 781.286 1085.686, 781.965 1086.365 C 782.523 1086.923, 783.685 1087.483, 784.547 1087.610 C 785.409 1087.736, 792.726 1089.437, 800.807 1091.389 C 822.420 1096.611, 839.876 1098.923, 874 1101.085 C 891.060 1102.167, 899.321 1101.973, 925 1099.889 C 931.875 1099.331, 940.425 1098.650, 944 1098.375 C 951.512 1097.798, 974.719 1093.650, 983.500 1091.315 C 986.800 1090.438, 990.175 1089.621, 991 1089.501 C 991.825 1089.381, 993.767 1088.769, 995.315 1088.141 C 996.863 1087.514, 998.993 1087, 1000.048 1087 C 1001.993 1087, 1018.259 1081.622, 1025.402 1078.617 C 1027.548 1077.714, 1030.698 1076.734, 1032.402 1076.440 C 1034.106 1076.147, 1039.100 1074.201, 1043.500 1072.116 C 1047.900 1070.032, 1053.747 1067.475, 1056.494 1066.434 C 1061.064 1064.703, 1074.160 1058.162, 1092.742 1048.332 L 1099.985 1044.500 1099.974 938.500 C 1099.966 851.278, 1099.710 830.906, 1098.529 823.500 C 1096.740 812.289, 1094.903 806.390, 1091.537 801.058 C 1090.094 798.773, 1088.511 795.844, 1088.019 794.549 C 1086.619 790.867, 1075.901 778.930, 1069.918 774.388 C 1061.716 768.162, 1052.294 763.424, 1042.410 760.555 C 1033.510 757.971, 1033.458 757.968, 994.500 757.948 L 955.500 757.928 955.201 760.279 C 955.037 761.572, 956.049 777.675, 957.449 796.065 C 958.849 814.454, 960.255 835.350, 960.573 842.500 C 961.138 855.211, 963.326 886.321, 968.571 956.198 C 971.162 990.730, 971.165 990.906, 969.206 993.010 C 968.122 994.172, 961.446 1002.736, 954.368 1012.040 C 947.291 1021.344, 941.199 1028.966, 940.831 1028.978 C 940.464 1028.990, 936.639 1024.446, 932.331 1018.879 C 928.024 1013.313, 921.284 1004.865, 917.353 1000.105 L 910.206 991.452 913.568 943.976 C 915.417 917.864, 917.640 885.475, 918.508 872 C 919.376 858.525, 921.598 827.475, 923.446 803 C 925.294 778.525, 926.512 758.275, 926.153 758 C 925.794 757.725, 923.700 757.604, 921.500 757.732 M 363.500 1305.145 C 340.658 1307.283, 322.300 1323.791, 317.511 1346.500 C 314.849 1359.120, 316.300 1370.549, 322.112 1382.746 C 333.806 1407.285, 366.256 1418.039, 392.476 1406.064 C 398.879 1403.139, 410 1394.674, 410 1392.724 C 410 1392.083, 407.472 1389.003, 404.382 1385.881 L 398.764 1380.203 391.940 1385.182 C 384.003 1390.973, 378.154 1393, 369.379 1393 C 348.419 1393, 333.537 1373.984, 337.114 1351.773 C 339.556 1336.606, 348.035 1326.999, 362.172 1323.377 C 372.797 1320.656, 383.277 1323.507, 394.072 1332.057 L 397.915 1335.100 401.329 1331.300 C 403.207 1329.210, 405.998 1325.999, 407.532 1324.165 L 410.320 1320.831 407.410 1318.429 C 394.467 1307.748, 380.581 1303.547, 363.500 1305.145 M 473.500 1305.160 C 456.429 1306.816, 441.203 1316.560, 432.511 1331.392 C 423.582 1346.627, 423.841 1370.176, 433.105 1385.564 C 445.240 1405.716, 469.489 1415.141, 493.443 1409.015 C 518.537 1402.597, 534.193 1380.851, 532.691 1354.500 C 532.026 1342.829, 530.060 1336.747, 524.057 1327.797 C 513.045 1311.375, 494.596 1303.115, 473.500 1305.160 M 556 1357.501 L 556 1409.075 565.250 1408.788 L 574.500 1408.500 574.763 1373.520 L 575.026 1338.540 590.110 1361.270 C 598.406 1373.771, 605.580 1384, 606.052 1384 C 606.524 1384, 613.793 1373.841, 622.205 1361.425 L 637.500 1338.849 637.763 1373.925 L 638.026 1409 647.522 1409 L 657.018 1409 656.759 1357.750 L 656.500 1306.500 646.873 1306.215 L 637.247 1305.931 627.748 1320.715 C 622.524 1328.847, 615.562 1339.657, 612.276 1344.738 L 606.301 1353.976 596.216 1338.238 C 590.670 1329.582, 583.739 1318.900, 580.816 1314.500 L 575.500 1306.500 565.750 1306.214 L 556 1305.928 556 1357.501 M 684.667 1306.667 C 684.300 1307.033, 684 1330.208, 684 1358.167 L 684 1409 693.500 1409 L 703 1409 703 1393 L 703 1377 712.428 1377 C 724.280 1377, 735.787 1375.426, 742.618 1372.870 C 749.686 1370.225, 757.227 1363.275, 760.700 1356.203 C 763.170 1351.171, 763.500 1349.382, 763.499 1341 C 763.498 1332.474, 763.197 1330.905, 760.560 1325.696 C 755.289 1315.282, 745.783 1308.971, 732.469 1307.047 C 724.725 1305.928, 685.716 1305.617, 684.667 1306.667 M 818.070 1308.250 C 817.586 1309.487, 812.150 1321.975, 805.990 1336 C 799.830 1350.025, 793.539 1364.425, 792.010 1368 C 790.481 1371.575, 785.827 1382.278, 781.668 1391.784 L 774.104 1409.069 784.151 1408.784 L 794.197 1408.500 799.002 1397 L 803.806 1385.500 827.683 1385.233 L 851.560 1384.965 856.530 1396.981 L 861.500 1408.997 871.714 1408.999 L 881.929 1409 880.080 1404.750 C 873.593 1389.838, 848.879 1333.390, 844.287 1323 C 841.249 1316.125, 838.378 1309.487, 837.906 1308.250 C 837.105 1306.146, 836.464 1306, 828 1306 C 819.543 1306, 818.893 1306.147, 818.070 1308.250 M 900.704 1306.630 C 900.317 1307.017, 900 1330.208, 900 1358.167 L 900 1409 909.487 1409 L 918.974 1409 919.237 1373.914 L 919.500 1338.828 927.500 1349.296 C 931.900 1355.054, 944.050 1370.831, 954.500 1384.356 L 973.500 1408.948 981.759 1408.974 L 990.018 1409 989.759 1357.750 L 989.500 1306.500 980.500 1306.500 L 971.500 1306.500 971 1340.706 L 970.500 1374.912 943.988 1340.706 L 917.476 1306.500 909.442 1306.213 C 905.023 1306.055, 901.091 1306.242, 900.704 1306.630 M 1007.231 1307.715 C 1007.497 1308.697, 1016.554 1322.934, 1027.357 1339.354 L 1047 1369.208 1047 1389.104 L 1047 1409 1056.500 1409 L 1066 1409 1066 1388.825 L 1066 1368.651 1086 1338.278 C 1097 1321.573, 1106 1307.476, 1106 1306.952 C 1106 1306.410, 1101.528 1306, 1095.622 1306 L 1085.244 1306 1070.910 1328.433 L 1056.576 1350.866 1051.038 1342.190 C 1047.992 1337.419, 1041.653 1327.436, 1036.950 1320.007 L 1028.400 1306.500 1017.574 1306.215 C 1007.594 1305.952, 1006.786 1306.069, 1007.231 1307.715 M 1165.875 1307 C 1165.806 1307.550, 1165.750 1308.675, 1165.750 1309.500 C 1165.750 1310.325, 1165.806 1333.050, 1165.875 1360 L 1166 1409 1175 1409 L 1184 1409 1184 1373.941 C 1184 1351.431, 1184.349 1339.098, 1184.975 1339.484 C 1185.511 1339.816, 1197.948 1355.592, 1212.613 1374.543 L 1239.276 1409 1247.138 1409 C 1252.728 1409, 1255.018 1408.639, 1255.061 1407.750 C 1255.095 1407.063, 1255.089 1384.900, 1255.049 1358.500 C 1255.009 1332.100, 1254.982 1309.487, 1254.988 1308.250 C 1255 1306.083, 1254.670 1306, 1246.013 1306 L 1237.026 1306 1236.763 1340.715 L 1236.500 1375.430 1226.449 1362.465 C 1220.921 1355.334, 1208.812 1339.713, 1199.541 1327.750 L 1182.685 1306 1174.342 1306 C 1169.531 1306, 1165.947 1306.423, 1165.875 1307 M 1313.807 1316.716 C 1311.229 1322.647, 1306.354 1333.800, 1302.974 1341.500 C 1299.594 1349.200, 1293.987 1362.025, 1290.515 1370 C 1287.042 1377.975, 1282.092 1389.225, 1279.514 1395 C 1272.549 1410.606, 1272.107 1409.123, 1283.623 1408.788 L 1293.500 1408.500 1298.476 1396.733 L 1303.452 1384.965 1327.307 1385.233 L 1351.162 1385.500 1355.913 1397 L 1360.663 1408.500 1370.952 1408.786 C 1379.027 1409.011, 1381.130 1408.796, 1380.721 1407.786 C 1379.910 1405.782, 1369.451 1381.824, 1352.217 1342.500 L 1336.441 1306.500 1327.468 1306.216 L 1318.495 1305.931 1313.807 1316.716 M 1399.472 1307.214 C 1399.201 1307.921, 1399.097 1331, 1399.240 1358.500 L 1399.500 1408.500 1408.737 1408.787 L 1417.974 1409.075 1418.237 1373.836 L 1418.500 1338.596 1433.568 1360.988 C 1441.856 1373.303, 1449.075 1383.525, 1449.610 1383.703 C 1450.146 1383.882, 1457.540 1373.710, 1466.042 1361.098 L 1481.500 1338.169 1481.763 1373.584 L 1482.025 1409 1491.522 1409 L 1501.018 1409 1500.759 1357.750 L 1500.500 1306.500 1490.525 1306.500 L 1480.551 1306.500 1465.745 1329.500 C 1457.602 1342.150, 1450.563 1352.630, 1450.105 1352.788 C 1449.646 1352.947, 1446.043 1347.997, 1442.098 1341.788 C 1438.154 1335.580, 1431.435 1325.100, 1427.168 1318.500 L 1419.410 1306.500 1409.688 1306.214 C 1402.472 1306.001, 1399.838 1306.259, 1399.472 1307.214 M 1527.492 1308.250 C 1527.192 1309.487, 1527.070 1332.550, 1527.223 1359.500 L 1527.500 1408.500 1566.250 1408.762 L 1605 1409.023 1605 1400.512 L 1605 1392 1575.500 1392 L 1546 1392 1546 1379.017 L 1546 1366.034 1571.750 1365.767 L 1597.500 1365.500 1597.500 1357.500 L 1597.500 1349.500 1572 1349 L 1546.500 1348.500 1546.219 1336.250 L 1545.938 1324 1574.969 1324 L 1604 1324 1604 1315 L 1604 1306 1566.019 1306 L 1528.038 1306 1527.492 1308.250 M 471.734 1323.030 C 462.149 1325.437, 454.009 1332.207, 449.391 1341.612 C 446.760 1346.970, 446.500 1348.446, 446.500 1358 C 446.500 1367.656, 446.738 1368.970, 449.464 1374.350 C 453.182 1381.688, 460.386 1388.247, 467.798 1391.043 C 472.414 1392.784, 475.023 1393.113, 481.500 1392.768 C 494.797 1392.059, 503.961 1385.712, 509.865 1373.120 C 512.132 1368.284, 512.500 1366.175, 512.500 1358 C 512.500 1349.803, 512.135 1347.722, 509.840 1342.825 C 506.144 1334.941, 500.167 1328.797, 493.116 1325.632 C 486.557 1322.689, 477.487 1321.585, 471.734 1323.030 M 703 1341.520 L 703 1359.188 717.250 1358.828 C 728.595 1358.542, 732.268 1358.090, 735.270 1356.611 C 741.012 1353.781, 743.397 1349.711, 743.817 1342.022 C 744.120 1336.478, 743.821 1334.975, 741.823 1332 C 737.722 1325.891, 733.495 1324.545, 717.250 1324.176 L 703 1323.852 703 1341.520 M 819.420 1348.752 L 811.434 1367.500 827.358 1367.775 C 836.117 1367.927, 843.469 1367.865, 843.696 1367.637 C 844.134 1367.200, 829.249 1332.031, 828.085 1330.752 C 827.711 1330.341, 823.811 1338.441, 819.420 1348.752 M 1326.249 1331.588 C 1324.788 1334.393, 1311 1366.833, 1311 1367.463 C 1311 1367.759, 1318.200 1368, 1327 1368 C 1335.800 1368, 1343 1367.615, 1343 1367.144 C 1343 1366.448, 1337.525 1353.394, 1328.506 1332.588 C 1327.339 1329.895, 1327.169 1329.820, 1326.249 1331.588 M 647.326 1439.060 C 635.658 1441.324, 629.805 1449.056, 631.304 1460.227 C 632.337 1467.935, 638.015 1472.295, 651.269 1475.558 C 658.705 1477.389, 664.299 1480.598, 664.826 1483.334 C 665.378 1486.202, 662.287 1489.827, 658.367 1490.909 C 653.480 1492.258, 646.496 1490.701, 640.564 1486.938 C 638.015 1485.322, 635.609 1484.032, 635.215 1484.072 C 634.822 1484.112, 633.180 1485.731, 631.567 1487.670 C 627.835 1492.154, 628.533 1493.396, 637.321 1497.914 C 645.672 1502.208, 657.216 1503.335, 664.470 1500.565 C 672.432 1497.524, 678.054 1488.404, 676.626 1480.846 C 675.024 1472.367, 669.921 1468.460, 655.110 1464.372 C 645.684 1461.771, 643 1459.915, 643 1456 C 643 1449.122, 653.187 1447.219, 662.934 1452.276 C 668.900 1455.371, 669.745 1455.113, 673.273 1449.123 L 675.047 1446.112 670.773 1443.667 C 663.260 1439.368, 654.554 1437.658, 647.326 1439.060 M 767.223 1439.008 C 764.870 1439.502, 760.630 1441.164, 757.800 1442.703 C 739.974 1452.395, 736.519 1478.519, 751.131 1493.131 C 758.019 1500.019, 762.067 1501.500, 774 1501.500 C 783.774 1501.500, 784.871 1501.294, 789.864 1498.529 C 802.067 1491.770, 809.025 1476.764, 805.974 1463.785 C 804.301 1456.666, 802.605 1453.561, 797.286 1447.875 C 790.334 1440.443, 777.889 1436.772, 767.223 1439.008 M 842.137 1439.077 C 831.929 1441.083, 821.928 1449.910, 818.511 1459.928 C 815.006 1470.203, 817.576 1483.640, 824.620 1491.869 C 830.175 1498.358, 836.773 1501.266, 847.140 1501.794 C 856.932 1502.293, 862.684 1500.854, 870.355 1495.990 L 875 1493.044 875 1479.522 L 875 1466 861.500 1466 L 848 1466 848 1471.500 L 848 1477 856 1477 L 864 1477 864 1481.974 C 864 1486.451, 863.710 1487.099, 861.102 1488.447 C 845.397 1496.569, 829.715 1487.467, 829.814 1470.287 C 829.917 1452.520, 847.021 1443.683, 862.199 1453.555 L 865.898 1455.961 869.596 1451.448 C 873.159 1447.100, 873.225 1446.881, 871.397 1445.445 C 867.512 1442.393, 862.266 1440.151, 856.535 1439.091 C 849.891 1437.863, 848.321 1437.861, 842.137 1439.077 M 689.667 1439.667 C 689.300 1440.033, 689 1453.983, 689 1470.667 L 689 1501 711 1501 L 733 1501 733 1495.500 L 733 1490 717 1490 L 701 1490 701 1464.500 L 701 1439 695.667 1439 C 692.733 1439, 690.033 1439.300, 689.667 1439.667 M 908.296 1444.251 C 907.084 1447.138, 903.327 1455.800, 899.948 1463.500 C 890.368 1485.328, 884 1500.139, 884 1500.589 C 884 1500.815, 886.640 1501, 889.866 1501 L 895.732 1501 898.874 1493.973 L 902.017 1486.945 916.093 1487.223 L 930.169 1487.500 932.922 1494 L 935.676 1500.500 941.838 1500.798 C 945.227 1500.961, 948 1500.736, 948 1500.298 C 948.001 1499.859, 942.057 1485.888, 934.792 1469.250 L 921.584 1439 916.042 1439.001 L 910.500 1439.003 908.296 1444.251 M 959 1469.907 L 959 1500.815 964.585 1501.157 C 967.658 1501.346, 970.358 1501.313, 970.585 1501.083 C 970.813 1500.854, 971 1491.470, 971 1480.230 L 971 1459.794 987.040 1480.397 L 1003.080 1501 1008.040 1501 L 1013 1501 1013 1469.950 L 1013 1438.900 1007.250 1439.200 L 1001.500 1439.500 1001 1459.264 L 1000.500 1479.027 985.033 1459.014 L 969.566 1439 964.283 1439 L 959 1439 959 1469.907 M 1055.712 1439.622 C 1055.320 1440.013, 1055 1453.942, 1055 1470.574 L 1055 1500.815 1060.585 1501.157 C 1063.658 1501.346, 1066.358 1501.313, 1066.585 1501.083 C 1066.813 1500.854, 1067 1495.117, 1067 1488.333 L 1067 1476 1081 1476 L 1095 1476 1095 1488.407 L 1095 1500.815 1100.545 1501.157 C 1105.414 1501.458, 1106.149 1501.256, 1106.575 1499.500 C 1106.842 1498.400, 1106.934 1484.450, 1106.780 1468.500 L 1106.500 1439.500 1100.750 1439.200 L 1095 1438.900 1095 1451.700 L 1095 1464.500 1082.250 1464.262 C 1075.238 1464.130, 1068.951 1464.018, 1068.281 1464.012 C 1067.404 1464.003, 1066.983 1460.557, 1066.781 1451.750 L 1066.500 1439.500 1061.462 1439.205 C 1058.690 1439.043, 1056.103 1439.230, 1055.712 1439.622 M 1122.685 1439.648 C 1122.308 1440.025, 1122 1453.983, 1122 1470.667 L 1122 1501 1145.552 1501 L 1169.105 1501 1168.802 1495.750 L 1168.500 1490.500 1151.250 1490.226 L 1134 1489.953 1134 1483.002 L 1134 1476.052 1149.250 1475.776 L 1164.500 1475.500 1164.798 1470.370 C 1165.079 1465.544, 1164.939 1465.201, 1162.429 1464.572 C 1160.963 1464.204, 1154.079 1463.977, 1147.131 1464.068 L 1134.500 1464.234 1134.207 1457.141 L 1133.913 1450.048 1151.207 1449.774 L 1168.500 1449.500 1168.500 1444.500 L 1168.500 1439.500 1145.935 1439.232 C 1133.524 1439.084, 1123.062 1439.272, 1122.685 1439.648 M 1182 1469.936 L 1182 1501.100 1187.750 1500.800 C 1191.436 1500.608, 1193.545 1500.051, 1193.625 1499.250 C 1193.694 1498.563, 1193.806 1493.950, 1193.875 1489 L 1194 1480 1199.931 1480 L 1205.863 1480 1211.522 1487.750 C 1214.635 1492.013, 1217.913 1496.737, 1218.807 1498.250 C 1220.325 1500.820, 1220.875 1501, 1227.216 1501 C 1230.947 1501, 1234 1500.654, 1234 1500.232 C 1234 1499.809, 1230.649 1494.788, 1226.553 1489.074 L 1219.106 1478.684 1223.396 1475.964 C 1233.660 1469.455, 1236.055 1454.931, 1228.253 1446.517 C 1222.995 1440.847, 1218.219 1439.639, 1199.250 1439.186 L 1182 1438.773 1182 1469.936 M 1246 1470 L 1246 1501 1269.552 1501 L 1293.105 1501 1292.802 1495.750 L 1292.500 1490.500 1275 1490 L 1257.500 1489.500 1257.500 1483 L 1257.500 1476.500 1272.500 1476 L 1287.500 1475.500 1287.500 1470 L 1287.500 1464.500 1272.750 1464.500 L 1257.999 1464.500 1258 1457.250 L 1258 1450 1275 1450 L 1292 1450 1292 1444.500 L 1292 1439 1269 1439 L 1246 1439 1246 1470 M 767.500 1450.490 C 758.585 1453.617, 752.658 1465.073, 754.868 1474.908 C 757.242 1485.472, 765.371 1491.575, 776.040 1490.803 C 785.615 1490.111, 792.467 1483.316, 793.644 1473.347 C 794.490 1466.176, 792.510 1460.247, 787.645 1455.382 C 781.641 1449.377, 775.161 1447.804, 767.500 1450.490 M 1193.819 1459.502 L 1193.500 1469.004 1203.300 1469.002 C 1209.961 1469.001, 1214.010 1468.529, 1215.941 1467.530 C 1219.571 1465.654, 1221.182 1461.242, 1219.914 1456.651 C 1218.532 1451.644, 1214.392 1450, 1203.167 1450 L 1194.137 1450 1193.819 1459.502 M 911.745 1463.750 C 909.724 1468.563, 907.781 1473.287, 907.428 1474.250 C 906.846 1475.837, 907.647 1476, 916 1476 C 924.353 1476, 925.154 1475.837, 924.572 1474.250 C 922.312 1468.093, 916.482 1455, 916 1455 C 915.681 1455, 913.767 1458.938, 911.745 1463.750" stroke="none" fill="#000000" fill-rule="evenodd"/>
</svg>