<svg xmlns="http://www.w3.org/2000/svg" width="700" height="700" viewBox="0 0 700 700" version="1.1">
	<path d="M 163.500 241.503 C 158.279 243.350, 152.436 249.666, 150.994 255.023 C 149.175 261.779, 150.575 267.971, 155.904 276.736 C 171.381 302.193, 264.606 443.118, 269.979 449.180 C 273.080 452.678, 277.101 455.881, 280.446 457.518 C 285.535 460.007, 286.603 460.154, 297.357 459.838 C 308.240 459.518, 309.061 459.343, 313.168 456.483 C 317.309 453.599, 324.734 444.252, 339.086 423.859 C 346.355 413.530, 348.543 412.282, 352.639 416.131 C 353.983 417.393, 360.891 425.878, 367.990 434.987 C 386.100 458.224, 387.910 459.420, 405 459.462 C 415.589 459.489, 416.906 459.277, 421.623 456.793 C 424.441 455.309, 428.491 452.084, 430.623 449.626 C 432.756 447.168, 445.296 428.584, 458.490 408.328 C 471.685 388.073, 496.031 350.800, 512.593 325.500 C 550.462 267.653, 549.430 269.467, 549.351 260.889 C 549.270 252.007, 546.203 246.517, 539.190 242.700 L 534.229 240 448.365 240.044 C 377.667 240.080, 361.793 240.334, 358.500 241.480 C 353.007 243.391, 349.927 247.203, 328.176 279 L 309.364 306.500 304.432 306.720 L 299.500 306.940 279 280.418 C 254.784 249.089, 249.698 243.190, 245.332 241.365 C 240.504 239.348, 169.253 239.468, 163.500 241.503 M 183.750 265.684 C 181.137 265.918, 179 266.540, 179 267.065 C 179 268.592, 188.675 283.924, 213.981 322.500 C 226.970 342.300, 247.627 373.878, 259.886 392.672 C 272.145 411.467, 283.746 428.680, 285.665 430.922 C 289.019 434.840, 289.389 435, 295.071 435 L 300.986 435 306.486 427.563 C 313.777 417.703, 329.775 393.283, 330.558 390.819 C 331.417 388.110, 330.825 387.287, 289.955 334.400 C 245.195 276.480, 237.886 267.265, 236 266.372 C 234.332 265.582, 191.223 265.015, 183.750 265.684 M 370.259 265.694 C 366.055 266.111, 365.935 266.235, 356.137 280.307 C 344.003 297.735, 328.220 321.761, 324.450 328.543 C 321.772 333.361, 321.717 333.726, 323.204 336.706 C 324.498 339.301, 378.081 409.932, 391.324 426.500 C 397.634 434.394, 398.585 435, 404.659 435 C 409.281 435, 410.470 434.596, 412.599 432.299 C 416.365 428.235, 430.950 406.049, 431.626 403.355 C 432.919 398.203, 432.770 397.990, 403.619 363.364 C 382.592 338.387, 382.766 338.666, 382.212 329.110 C 381.607 318.657, 382.492 316.893, 400.810 292.037 C 415.769 271.738, 418.724 267.350, 417.918 266.629 C 417.271 266.049, 375.040 265.221, 370.259 265.694 M 448.083 269.642 C 436.395 282.919, 406.999 323.565, 407.004 326.442 C 407.006 327.574, 407.857 329.893, 408.895 331.595 C 411.220 335.408, 425.573 352.655, 435.654 363.750 C 442.311 371.076, 443.542 372, 446.641 372 C 448.561 372, 451.015 371.527, 452.095 370.949 C 454.070 369.892, 464.988 353.681, 499.205 301 C 520.899 267.598, 520.569 268.169, 519.045 266.645 C 518.253 265.853, 507.895 265.395, 485.132 265.145 L 452.360 264.785 448.083 269.642" stroke="none" fill="#000000" fill-rule="evenodd"/>
</svg>