<svg xmlns="http://www.w3.org/2000/svg" width="1024" height="1024" viewBox="0 0 1024 1024" version="1.1">
	<path d="M 320.283 371.607 C 317.877 372.216, 314.586 373.980, 312.972 375.527 C 306.914 381.331, 306.895 381.530, 307.212 436.074 L 307.500 485.649 310.184 489.703 C 311.800 492.144, 314.611 494.602, 317.250 495.879 C 321.433 497.904, 323.053 497.999, 353.066 497.978 C 388.288 497.953, 389.502 497.747, 395.642 490.755 L 398.767 487.196 400.036 489.568 C 402.242 493.689, 408.569 497.300, 414.440 497.787 C 425.602 498.712, 431.662 494.045, 437.647 479.912 L 441.420 471 460.460 471.004 L 479.500 471.007 482.884 479.622 C 484.746 484.360, 487.561 489.708, 489.140 491.507 C 494.896 498.063, 494.414 498.001, 540.151 497.988 C 583.981 497.976, 586.756 497.730, 595.892 493.060 C 598.308 491.825, 602.465 488.775, 605.130 486.282 C 620.277 472.113, 620.277 444.887, 605.130 430.718 C 598.503 424.520, 594.110 422.445, 575.167 416.568 C 566.184 413.780, 558.869 411.050, 558.911 410.500 C 558.958 409.895, 565.877 409.302, 576.417 409 L 593.845 408.500 598.361 405.314 C 600.844 403.562, 603.017 402.508, 603.188 402.972 C 603.360 403.437, 610.194 411.279, 618.376 420.399 C 626.558 429.520, 634.533 438.674, 636.098 440.741 L 638.944 444.500 638.972 464.790 C 639.005 488.489, 639.695 490.948, 647.742 496.052 C 653.031 499.405, 660.623 500.047, 666.282 497.619 C 670.204 495.937, 675.499 490.503, 676.939 486.685 C 677.552 485.058, 678.002 475.769, 678.004 464.685 C 678.007 447.402, 678.202 445.182, 679.965 442.289 C 682.074 438.831, 689.271 430.357, 705.949 411.694 C 717.671 398.577, 718.890 396.536, 718.955 389.907 C 719.052 380.009, 710.731 371.057, 700.655 370.221 C 692.215 369.521, 689.501 371.408, 673.770 388.919 C 666.072 397.489, 659.434 404.630, 659.021 404.789 C 658.607 404.947, 653.045 399.273, 646.661 392.179 C 632.100 375.999, 628.079 372.367, 623.307 371.084 C 618.143 369.695, 548.760 370.631, 544 372.154 C 533.016 375.667, 524.910 382.626, 520.301 392.500 C 517.765 397.932, 517.500 399.541, 517.505 409.500 C 517.509 419.329, 517.794 421.109, 520.185 426.218 C 523.486 433.273, 530.399 440.811, 536.726 444.254 C 539.352 445.682, 548.475 448.876, 557 451.350 C 565.525 453.825, 573.285 456.155, 574.244 456.529 C 578.171 458.061, 574.254 459.004, 563.691 459.071 C 543.332 459.200, 535.476 460.286, 530.721 463.628 C 528.416 465.249, 525.546 468.034, 524.343 469.819 C 523.141 471.603, 521.941 472.711, 521.677 472.281 C 520.897 471.013, 509.995 443.730, 497.069 410.698 C 490.440 393.758, 484.225 378.826, 483.258 377.516 C 482.291 376.207, 479.700 374.093, 477.500 372.818 C 473.835 370.695, 472.369 370.506, 460 370.570 C 445.560 370.644, 442.782 371.367, 438.239 376.231 C 436.945 377.617, 428.260 398.288, 417.940 424.542 C 408.019 449.781, 399.766 470.567, 399.600 470.733 C 399.434 470.899, 397.315 469.052, 394.891 466.628 C 388.466 460.203, 383.488 459, 363.318 459 L 347 459 347 456 L 347 453 364.184 453 C 379.652 453, 381.806 452.788, 385.750 450.879 C 391.475 448.107, 394.972 442.793, 395.632 435.859 C 396.293 428.919, 393.295 422.776, 387.168 418.513 L 382.835 415.500 364.918 415.187 L 347 414.874 347 411.993 L 347 409.112 367.910 408.806 L 388.820 408.500 392.595 405.442 C 398.698 400.499, 400.326 397.645, 400.803 391.052 C 401.173 385.935, 400.855 384.428, 398.591 380.565 C 396.915 377.705, 394.218 375.037, 391.223 373.277 L 386.500 370.500 355.579 370.500 C 336.272 370.500, 323.015 370.916, 320.283 371.607 M 456.996 430.182 C 455.235 434.757, 453.589 438.837, 453.338 439.250 C 453.087 439.663, 456.248 440, 460.363 440 L 467.843 440 464.324 431.250 C 462.388 426.438, 460.667 422.357, 460.501 422.182 C 460.334 422.007, 458.757 425.607, 456.996 430.182 M 357.870 528.025 C 334.094 531.713, 314.866 549.810, 308.532 574.460 C 306.571 582.091, 306.583 597.600, 308.557 606 C 313.815 628.378, 333.333 647.995, 354.885 652.563 C 358.592 653.349, 367.238 653.973, 374.554 653.983 C 386.538 653.999, 388.024 653.792, 392.691 651.467 C 404.621 645.522, 407.485 631.316, 398.757 621.376 C 397.090 619.477, 394.775 617.393, 393.613 616.745 C 392.451 616.096, 385.425 615.298, 378 614.972 C 367.008 614.488, 363.757 613.988, 360.500 612.280 C 352.861 608.275, 348.197 601.332, 347.306 592.637 C 346.297 582.791, 350.195 574.629, 358.298 569.619 C 362.787 566.844, 363.845 566.642, 376.875 566.073 C 389.670 565.514, 390.992 565.271, 394.748 562.786 C 400.296 559.114, 404.453 550.708, 403.760 544.561 C 403.080 538.531, 399.710 533.502, 394.163 530.241 C 389.783 527.666, 388.712 527.489, 376.500 527.326 C 369.350 527.230, 360.966 527.544, 357.870 528.025 M 531.127 528.426 C 525.983 530.115, 521.304 534.213, 519.377 538.718 C 518.452 540.879, 517.993 546.135, 517.977 554.718 L 517.955 567.500 514.691 561.446 C 510.442 553.565, 504.789 546.856, 498.190 541.862 C 465.376 517.032, 418.460 527.517, 401.373 563.500 C 397.802 571.021, 394.414 584.814, 395.798 586.198 C 397.185 587.585, 409.580 585.339, 415.503 582.627 C 418.870 581.086, 424.130 577.139, 429 572.500 C 433.890 567.841, 439.210 563.854, 442.740 562.199 C 447.851 559.804, 449.683 559.500, 459 559.500 C 468.589 559.500, 470.021 559.755, 475.500 562.438 C 479.249 564.274, 484.314 568.157, 489 572.789 C 497.644 581.332, 503.426 584.614, 512.819 586.309 C 519.491 587.513, 519.500 587.520, 519.799 591.068 L 520.098 594.621 515.299 594.844 C 505.269 595.310, 498.189 598.837, 488.828 608.032 C 477.550 619.111, 466.061 623.445, 453.621 621.314 C 444.714 619.788, 437.961 616.095, 429.319 608.024 C 419.511 598.864, 408.631 594, 397.951 594 C 394.286 594, 394.172 595.551, 397.068 606.004 C 402.019 623.867, 413.642 638.300, 429.217 645.925 C 433.773 648.155, 440.182 650.660, 443.460 651.490 C 456.120 654.697, 474.977 652.593, 486.669 646.668 C 498.908 640.466, 510.168 629.126, 515.631 617.500 L 517.980 612.500 517.990 625.790 C 518.003 643.333, 519.830 647.302, 530.018 651.923 C 533.623 653.558, 536.611 653.960, 545.292 653.978 C 574.183 654.037, 595.603 642.840, 607.585 621.415 C 616.427 605.604, 617.360 582.193, 609.872 564.028 L 608.006 559.500 610.753 562.618 C 612.264 564.334, 616.914 569.509, 621.088 574.118 C 625.261 578.728, 631.448 585.832, 634.838 589.904 L 641 597.308 641.022 617.904 C 641.041 635.660, 641.295 639.053, 642.865 642.509 C 647.078 651.782, 657.120 656.341, 666.923 653.430 C 673.063 651.607, 678.475 646.552, 679.942 641.269 C 680.518 639.196, 680.991 628.692, 680.994 617.926 L 681 598.352 684.250 593.791 C 686.038 591.282, 693.575 582.614, 701 574.528 C 708.425 566.443, 715.505 558.178, 716.734 556.164 C 723.987 544.266, 713.694 527, 699.347 527 C 691.605 527, 687.555 529.492, 678.750 539.672 C 674.550 544.527, 668.951 550.861, 666.307 553.747 L 661.500 558.993 648.224 544.509 C 640.922 536.542, 633.539 529.296, 631.818 528.406 C 629.592 527.255, 626.883 526.902, 622.449 527.184 C 611.193 527.901, 603.818 535.644, 603.606 546.967 L 603.500 552.651 599.120 547.784 C 591.829 539.682, 580.159 532.736, 568.500 529.557 C 559.989 527.237, 536.878 526.537, 531.127 528.426 M 557 590.095 L 557 614 560.886 614 C 569.671 614, 580.572 605.017, 583.077 595.713 C 586.455 583.168, 575.396 568.476, 561.250 566.718 L 557 566.190 557 590.095 M 449.971 570.747 C 432.583 579.830, 434.928 605.501, 453.650 611.031 C 469.914 615.835, 485.088 598.290, 478.179 582.671 C 477.042 580.102, 475.734 578, 475.272 578 C 474.810 578, 471.987 580.475, 469 583.500 C 466.013 586.525, 463.150 589, 462.639 589 C 462.083 589, 462.013 586.090, 462.464 581.750 C 463.904 567.914, 464.043 568.540, 459.455 568.203 C 456.536 567.988, 453.897 568.696, 449.971 570.747" stroke="none" fill="#000000" fill-rule="evenodd"/>
</svg>