<svg xmlns="http://www.w3.org/2000/svg" width="700" height="700" viewBox="0 0 700 700" version="1.1">
	<path d="M 504.500 185.046 C 412.077 206.609, 416 205.617, 416 207.424 C 416 208.155, 423.875 214.664, 433.500 221.887 C 443.125 229.110, 451 235.452, 451 235.980 C 451 237.110, 450.103 238.224, 395.431 305 C 372.241 333.325, 352.310 357.354, 351.140 358.399 C 349.025 360.287, 348.992 360.273, 344.940 355.669 C 341.021 351.217, 280.186 276.867, 257.500 248.804 C 249.162 238.489, 245.804 235.052, 243.625 234.598 C 239.878 233.819, 201.177 233.846, 198.250 234.630 C 197.012 234.962, 196 235.826, 196 236.551 C 196 238.056, 202.416 246.273, 222.505 270.500 C 230.258 279.850, 256.355 311.800, 280.497 341.500 C 340.094 414.816, 346.972 423, 348.991 423 C 350.947 423, 365.099 406.449, 410.982 350.500 C 454.868 296.988, 482.987 263.126, 484.121 262.425 C 485.043 261.855, 490.076 265.324, 517.337 285.318 C 523.847 290.093, 529.527 294, 529.958 294 C 530.389 294, 531.012 290.962, 531.343 287.250 C 532.260 276.958, 533.378 185.641, 532.624 182.637 C 531.710 178.997, 529.689 179.170, 504.500 185.046 M 167.607 241.582 C 167.273 242.452, 167 255.750, 167 271.133 L 167 299.103 186.233 322.801 C 227.336 373.446, 334.596 504.868, 340.392 511.686 C 347.345 519.865, 349.275 520.966, 352.129 518.383 C 353.938 516.746, 382.782 481.822, 484.494 358.119 C 504.112 334.259, 520.398 314.126, 520.685 313.378 C 521.026 312.491, 519.672 311.360, 516.797 310.127 C 510.058 307.239, 484.385 299, 482.122 299 C 480.713 299, 473.530 307.070, 457.865 326.250 C 425.881 365.412, 361.552 443.406, 355.168 450.762 C 350.564 456.068, 349.502 456.832, 348.211 455.762 C 345.117 453.200, 311.493 412.411, 240.003 324.500 C 182.668 253.995, 170.903 240, 168.970 240 C 168.554 240, 167.941 240.712, 167.607 241.582" stroke="none" fill="#000000" fill-rule="evenodd"/>
</svg>